# 3ds Max Wavefront OBJ Exporter v0.97b - (c)2007 guruware
# File Created: 30.01.2014 14:25:20

mtllib Wall01_HP.mtl

#
# object Plane001
#

v  -206.0000 186.0000 -25.0000
v  206.0000 186.0000 -25.0000
v  206.0000 326.0000 -25.0000
v  -206.0000 326.0000 -25.0000
v  -249.0000 125.0171 5.6899
v  -249.0000 109.0132 19.8110
v  -244.0000 105.2640 23.1191
v  244.0000 128.7663 2.3818
v  244.0000 105.2640 23.1191
v  249.0000 109.0132 19.8110
v  249.0000 125.0171 5.6899
v  -244.0000 128.7663 2.3818
v  256.0000 410.0000 30.0000
v  -256.0000 410.0000 30.0000
v  -256.0000 376.0000 0.0000
v  256.0000 376.0000 0.0000
v  -244.0000 85.0000 33.0000
v  -244.0000 17.0000 33.0000
v  -239.0000 12.0000 33.0000
v  239.0000 90.0000 33.0000
v  239.0000 12.0000 33.0000
v  244.0000 17.0000 33.0000
v  244.0000 85.0000 33.0000
v  -239.0000 90.0000 33.0000
v  251.5000 456.5008 33.6899
v  -251.5000 456.5008 33.6899
v  -251.5000 456.2281 33.6899
v  251.5000 456.2281 33.6899
v  -241.0895 150.9105 3.0000
v  -220.9105 171.0895 3.0000
v  -217.3750 179.6250 3.0000
v  -244.6250 359.6250 3.0000
v  -217.3750 332.3750 3.0000
v  -220.9105 340.9105 3.0000
v  -241.0895 361.0895 3.0000
v  -244.6250 152.3750 3.0000
v  96.6400 176.6250 -0.0000
v  -96.6400 176.6250 -0.0000
v  -101.6400 171.6250 -0.0000
v  101.6400 150.3750 -0.0000
v  -101.6400 150.3750 -0.0000
v  -96.6400 145.3750 -0.0000
v  96.6400 145.3750 -0.0000
v  101.6400 171.6250 -0.0000
v  241.0895 361.0895 3.0000
v  220.9105 340.9105 3.0000
v  217.3750 332.3750 3.0000
v  244.6250 152.3750 3.0000
v  217.3750 179.6250 3.0000
v  220.9105 171.0895 3.0000
v  241.0895 150.9105 3.0000
v  244.6250 359.6250 3.0000
v  -96.6400 335.3750 0.0000
v  96.6400 335.3750 0.0000
v  101.6400 340.3750 0.0000
v  -101.6400 361.6250 0.0000
v  101.6400 361.6250 0.0000
v  96.6400 366.6250 0.0000
v  -96.6400 366.6250 0.0000
v  -101.6400 340.3750 0.0000
v  -206.0000 326.0000 0.0000
v  -206.0000 186.0000 -0.0000
v  206.0000 186.0000 -0.0000
v  206.0000 326.0000 0.0000
v  256.0000 0.0000 30.0000
v  256.0000 102.0000 30.0000
v  246.0000 87.0000 30.0000
v  246.0000 15.0000 30.0000
v  -256.0000 102.0000 30.0000
v  -241.0000 92.0000 30.0000
v  241.0000 92.0000 30.0000
v  -256.0000 0.0000 30.0000
v  -246.0000 15.0000 30.0000
v  -246.0000 87.0000 30.0000
v  241.0000 10.0000 30.0000
v  -241.0000 10.0000 30.0000
v  256.0000 512.0000 30.0000
v  -256.0000 512.0000 30.0000
v  -256.0000 502.7273 30.0000
v  256.0000 502.7273 30.0000
v  251.5000 493.5917 33.6899
v  -251.5000 493.5917 33.6899
v  -251.5000 493.3190 33.6899
v  251.5000 493.3190 33.6899
v  251.5000 484.3190 33.6899
v  -251.5000 484.3190 33.6899
v  -251.5000 484.0463 33.6899
v  251.5000 484.0463 33.6899
v  251.5000 475.0463 33.6899
v  -251.5000 475.0463 33.6899
v  -251.5000 474.7735 33.6899
v  251.5000 474.7735 33.6899
v  251.5000 465.7735 33.6899
v  -251.5000 465.7735 33.6899
v  -251.5000 465.5008 33.6899
v  251.5000 465.5008 33.6899
v  256.0000 419.2727 30.0000
v  -256.0000 419.2727 30.0000
v  -251.5000 419.1372 33.6898
v  251.5000 419.1372 33.6898
v  251.5000 419.4099 33.6898
v  -251.5000 419.4099 33.6898
v  -251.5000 428.4099 33.6898
v  251.5000 428.4099 33.6898
v  251.5000 428.6826 33.6898
v  -251.5000 428.6826 33.6898
v  -251.5000 437.6826 33.6899
v  251.5000 437.6826 33.6899
v  251.5000 437.9554 33.6899
v  -251.5000 437.9554 33.6899
v  -251.5000 446.9554 33.6899
v  251.5000 446.9554 33.6899
v  251.5000 447.2281 33.6899
v  -251.5000 447.2281 33.6899
v  256.0000 456.3636 30.0000
v  256.0000 465.6364 30.0000
v  252.0000 461.6364 30.0000
v  252.0000 460.3636 30.0000
v  -256.0000 465.6364 30.0000
v  -252.0000 461.6364 30.0000
v  -256.0000 456.3636 30.0000
v  -252.0000 460.3636 30.0000
v  256.0000 493.4545 30.0000
v  252.0000 498.7273 30.0000
v  252.0000 497.4545 30.0000
v  -252.0000 498.7273 30.0000
v  -256.0000 493.4545 30.0000
v  -252.0000 497.4545 30.0000
v  256.0000 484.1818 30.0000
v  252.0000 489.4545 30.0000
v  252.0000 488.1818 30.0000
v  -252.0000 489.4545 30.0000
v  -256.0000 484.1818 30.0000
v  -252.0000 488.1818 30.0000
v  256.0000 474.9091 30.0000
v  252.0000 480.1818 30.0000
v  252.0000 478.9091 30.0000
v  -252.0000 480.1818 30.0000
v  -256.0000 474.9091 30.0000
v  -252.0000 478.9091 30.0000
v  252.0000 470.9091 30.0000
v  252.0000 469.6364 30.0000
v  -252.0000 470.9091 30.0000
v  -252.0000 469.6364 30.0000
v  -256.0000 428.5455 30.0000
v  -252.0000 423.2727 30.0000
v  -252.0000 424.5455 30.0000
v  252.0000 423.2727 30.0000
v  256.0000 428.5455 30.0000
v  252.0000 424.5455 30.0000
v  -256.0000 437.8182 30.0000
v  -252.0000 432.5455 30.0000
v  -252.0000 433.8182 30.0000
v  252.0000 432.5455 30.0000
v  256.0000 437.8182 30.0000
v  252.0000 433.8182 30.0000
v  -256.0000 447.0909 30.0000
v  -252.0000 441.8182 30.0000
v  -252.0000 443.0909 30.0000
v  252.0000 441.8182 30.0000
v  256.0000 447.0909 30.0000
v  252.0000 443.0909 30.0000
v  -252.0000 451.0909 30.0000
v  -252.0000 452.3636 30.0000
v  252.0000 451.0909 30.0000
v  252.0000 452.3636 30.0000
v  -256.0000 136.0000 -0.0000
v  -251.0000 109.4984 23.3838
v  -251.0000 128.5016 6.6162
v  246.0000 105.7492 26.6919
v  -246.0000 105.7492 26.6919
v  256.0000 136.0000 -0.0000
v  251.0000 128.5016 6.6162
v  251.0000 109.4984 23.3838
v  -246.0000 132.2508 3.3081
v  246.0000 132.2508 3.3081
v  -215.3750 330.3750 0.0000
v  -215.3750 181.6250 -0.0000
v  -246.6250 150.3750 -0.0000
v  -246.6250 361.6250 0.0000
v  -210.3750 176.6250 -0.0000
v  -106.6400 176.6250 -0.0000
v  106.6400 176.6250 -0.0000
v  210.3750 176.6250 -0.0000
v  241.6250 145.3750 -0.0000
v  106.6400 145.3750 -0.0000
v  -106.6400 145.3750 -0.0000
v  -241.6250 145.3750 -0.0000
v  215.3750 181.6250 -0.0000
v  215.3750 330.3750 0.0000
v  246.6250 361.6250 0.0000
v  246.6250 150.3750 -0.0000
v  210.3750 335.3750 0.0000
v  106.6400 335.3750 0.0000
v  -106.6400 335.3750 0.0000
v  -210.3750 335.3750 0.0000
v  -241.6250 366.6250 0.0000
v  -106.6400 366.6250 0.0000
v  106.6400 366.6250 0.0000
v  241.6250 366.6250 0.0000
v  -108.6400 174.6250 3.0000
v  -212.3750 174.6250 3.0000
v  -103.6400 152.3750 3.0000
v  -239.6250 147.3750 3.0000
v  -108.6400 147.3750 3.0000
v  -103.6400 169.6250 3.0000
v  108.6400 147.3750 3.0000
v  239.6250 147.3750 3.0000
v  212.3750 174.6250 3.0000
v  108.6400 174.6250 3.0000
v  103.6400 169.6250 3.0000
v  103.6400 152.3750 3.0000
v  108.6400 337.3750 3.0000
v  212.3750 337.3750 3.0000
v  103.6400 359.6250 3.0000
v  239.6250 364.6250 3.0000
v  108.6400 364.6250 3.0000
v  103.6400 342.3750 3.0000
v  -108.6400 364.6250 3.0000
v  -239.6250 364.6250 3.0000
v  -212.3750 337.3750 3.0000
v  -108.6400 337.3750 3.0000
v  -103.6400 342.3750 3.0000
v  -103.6400 359.6250 3.0000
# 224 vertices

vn 0.0000 -0.0000 1.0000
vn 0.0000 0.6616 0.7498
vn -0.0000 0.6616 0.7498
vn 0.0000 -0.6616 0.7498
vn -0.0000 -0.0000 1.0000
vn 1.0000 0.0000 -0.0000
vn 0.0000 1.0000 0.0000
vn -1.0000 0.0000 -0.0000
vn 0.0000 -1.0000 -0.0000
vn 0.8321 -0.0000 0.5547
vn 0.0000 0.8321 0.5547
vn -0.8321 -0.0000 0.5547
vn 0.0000 -0.8321 0.5547
vn 0.5145 -0.5145 0.6860
vn 0.5145 0.5145 0.6860
vn -0.5145 0.5145 0.6860
vn -0.5145 -0.5145 0.6860
vn 0.9909 -0.0000 0.1343
vn 0.0000 0.5835 0.8121
vn -0.9909 -0.0000 0.1343
vn 0.0000 -0.6658 -0.7462
vn 0.8321 0.3670 0.4159
vn 0.0000 0.9909 -0.1346
vn -0.8321 0.3670 0.4159
vn 0.0000 -0.2569 0.9664
vn 0.5145 0.0681 0.8548
vn 0.5145 0.8397 0.1740
vn -0.5145 0.8397 0.1740
vn -0.5145 0.0681 0.8548
# 29 vertex normals

vt 0.0000 0.2656 0.0000
vt 1.0000 0.2656 0.0000
vt 1.0000 0.7344 0.0000
vt 0.0000 0.7344 0.0000
vt 0.0000 0.2550 0.0000
vt 0.0000 0.2098 0.0000
vt 0.0100 0.1992 0.0000
vt 0.9900 0.2656 0.0000
vt 0.9900 0.1992 0.0000
vt 1.0000 0.2098 0.0000
vt 1.0000 0.2550 0.0000
vt 0.0100 0.2656 0.0000
vt 1.0000 0.8008 0.0000
vt 0.0000 0.8008 0.0000
vt 0.0000 0.1864 0.0000
vt 0.0000 0.0128 0.0000
vt 0.0102 0.0000 0.0000
vt 0.9898 0.1992 0.0000
vt 0.9898 0.0000 0.0000
vt 1.0000 0.0128 0.0000
vt 1.0000 0.1864 0.0000
vt 0.0102 0.1992 0.0000
vt 1.0000 0.9094 0.0000
vt 0.0000 0.9094 0.0000
vt 0.0000 0.8913 0.0000
vt 1.0000 0.8913 0.0000
vt 0.0000 0.2800 0.0000
vt 0.0000 0.7236 0.0000
vt 0.0000 0.7200 0.0000
vt 0.0000 0.2764 0.0000
vt 0.7092 0.2656 0.0000
vt 0.2908 0.2656 0.0000
vt 0.2800 0.2656 0.0000
vt 0.7200 0.2656 0.0000
vt 1.0000 0.7200 0.0000
vt 1.0000 0.2764 0.0000
vt 1.0000 0.2800 0.0000
vt 1.0000 0.7236 0.0000
vt 0.2908 0.7344 0.0000
vt 0.7092 0.7344 0.0000
vt 0.7200 0.7344 0.0000
vt 0.2800 0.7344 0.0000
vt 1.0000 0.0000 0.0000
vt 1.0000 0.1992 0.0000
vt 1.0000 0.1871 0.0000
vt 1.0000 0.0121 0.0000
vt 0.0000 0.1992 0.0000
vt 0.0000 0.0000 0.0000
vt 0.0000 0.0121 0.0000
vt 0.0000 0.1871 0.0000
vt 1.0000 1.0000 0.0000
vt 0.0000 1.0000 0.0000
vt 0.0000 0.9819 0.0000
vt 1.0000 0.9819 0.0000
vt 0.0000 0.9638 0.0000
vt 1.0000 0.9638 0.0000
vt 0.0000 0.9457 0.0000
vt 1.0000 0.9457 0.0000
vt 0.0000 0.9276 0.0000
vt 1.0000 0.9276 0.0000
vt 1.0000 0.8189 0.0000
vt 0.0000 0.8189 0.0000
vt 1.0000 0.8370 0.0000
vt 0.0000 0.8370 0.0000
vt 1.0000 0.8551 0.0000
vt 0.0000 0.8551 0.0000
vt 1.0000 0.8732 0.0000
vt 0.0000 0.8732 0.0000
vt 0.0000 0.2086 0.0000
vt 0.0000 0.2562 0.0000
vt 1.0000 0.2562 0.0000
vt 1.0000 0.2086 0.0000
vt 0.0000 0.7196 0.0000
vt 0.0000 0.2804 0.0000
vt 0.0000 0.2762 0.0000
vt 0.0000 0.7238 0.0000
vt 0.0123 0.2656 0.0000
vt 0.2677 0.2656 0.0000
vt 0.7323 0.2656 0.0000
vt 0.9877 0.2656 0.0000
vt 0.9903 0.2656 0.0000
vt 0.7297 0.2656 0.0000
vt 0.2703 0.2656 0.0000
vt 0.0097 0.2656 0.0000
vt 1.0000 0.2804 0.0000
vt 1.0000 0.7196 0.0000
vt 1.0000 0.7238 0.0000
vt 1.0000 0.2762 0.0000
vt 0.9877 0.7344 0.0000
vt 0.7323 0.7344 0.0000
vt 0.2677 0.7344 0.0000
vt 0.0123 0.7344 0.0000
vt 0.0097 0.7344 0.0000
vt 0.2703 0.7344 0.0000
vt 0.7297 0.7344 0.0000
vt 0.9903 0.7344 0.0000
vt 0.0099 0.2656 0.0000
vt 0.2701 0.2656 0.0000
vt 0.7299 0.2656 0.0000
vt 0.9901 0.2656 0.0000
vt 0.9901 0.7344 0.0000
vt 0.7299 0.7344 0.0000
vt 0.2701 0.7344 0.0000
vt 0.0099 0.7344 0.0000
# 104 texture coords

g Plane001
usemtl wire_115115115
s off
f 1/1/1 2/2/1 3/3/1 4/4/1 
f 5/5/2 6/6/2 7/7/2 8/8/2 
f 7/7/3 9/9/3 10/10/3 8/8/3 
f 10/10/2 11/11/2 8/8/2 
f 12/12/2 5/5/2 8/8/2 
f 13/13/4 14/14/4 15/4/4 16/3/4 
f 17/15/1 18/16/1 19/17/1 20/18/1 
f 19/17/1 21/19/1 22/20/1 20/18/1 
f 22/20/5 23/21/5 20/18/5 
f 24/22/1 17/15/1 20/18/1 
f 25/23/1 26/24/1 27/25/1 28/26/1 
f 29/1/1 30/1/1 31/27/1 32/28/1 
f 31/27/1 33/29/1 34/4/1 32/28/1 
f 34/4/1 35/4/1 32/28/1 
f 36/30/1 29/1/1 32/28/1 
f 37/31/1 38/32/1 39/33/1 40/34/1 
f 39/33/1 41/33/1 42/32/1 40/34/1 
f 42/32/1 43/31/1 40/34/1 
f 44/34/1 37/31/1 40/34/1 
f 45/3/1 46/3/1 47/35/1 48/36/1 
f 47/35/1 49/37/1 50/2/1 48/36/1 
f 50/2/1 51/2/1 48/36/1 
f 52/38/1 45/3/1 48/36/1 
f 53/39/1 54/40/1 55/41/1 56/42/1 
f 55/41/1 57/41/1 58/40/1 56/42/1 
f 58/40/1 59/39/1 56/42/1 
f 60/42/1 53/39/1 56/42/1 
f 61/4/6 62/1/6 1/1/6 4/4/6 
f 62/1/7 63/2/7 2/2/7 1/1/7 
f 63/2/8 64/3/8 3/3/8 2/2/8 
f 64/3/9 61/4/9 4/4/9 3/3/9 
f 65/43/1 66/44/1 67/45/1 68/46/1 
f 66/44/1 69/47/1 70/22/1 71/18/1 
f 69/47/1 72/48/1 73/49/1 74/50/1 
f 72/48/1 65/43/1 75/19/1 76/17/1 
f 68/46/10 67/45/10 23/21/10 22/20/10 
f 71/18/11 70/22/11 24/22/11 20/18/11 
f 74/50/12 73/49/12 18/16/12 17/15/12 
f 76/17/13 75/19/13 21/19/13 19/17/13 
f 65/43/1 68/46/1 75/19/1 
f 66/44/1 71/18/1 67/45/1 
f 69/47/1 74/50/1 70/22/1 
f 72/48/1 76/17/1 73/49/1 
f 75/19/14 68/46/14 22/20/14 21/19/14 
f 67/45/15 71/18/15 20/18/15 23/21/15 
f 70/22/16 74/50/16 17/15/16 24/22/16 
f 73/49/17 76/17/17 19/17/17 18/16/17 
f 77/51/1 78/52/1 79/53/1 80/54/1 
f 81/54/1 82/53/1 83/55/1 84/56/1 
f 85/56/1 86/55/1 87/57/1 88/58/1 
f 89/58/1 90/57/1 91/59/1 92/60/1 
f 93/60/1 94/59/1 95/24/1 96/23/1 
f 14/14/1 13/13/1 97/61/1 98/62/1 
f 99/62/1 100/61/1 101/63/1 102/64/1 
f 103/64/1 104/63/1 105/65/1 106/66/1 
f 107/66/1 108/65/1 109/67/1 110/68/1 
f 111/68/1 112/67/1 113/26/1 114/25/1 
f 115/26/1 116/23/1 117/23/1 118/26/1 
f 116/23/1 119/24/1 120/24/1 117/23/1 
f 119/24/1 121/25/1 122/25/1 120/24/1 
f 121/25/1 115/26/1 118/26/1 122/25/1 
f 123/56/1 80/54/1 124/54/1 125/56/1 
f 80/54/1 79/53/1 126/53/1 124/54/1 
f 79/53/1 127/55/1 128/55/1 126/53/1 
f 127/55/1 123/56/1 125/56/1 128/55/1 
f 129/58/1 123/56/1 130/56/1 131/58/1 
f 123/56/1 127/55/1 132/55/1 130/56/1 
f 127/55/1 133/57/1 134/57/1 132/55/1 
f 133/57/1 129/58/1 131/58/1 134/57/1 
f 135/60/1 129/58/1 136/58/1 137/60/1 
f 129/58/1 133/57/1 138/57/1 136/58/1 
f 133/57/1 139/59/1 140/59/1 138/57/1 
f 139/59/1 135/60/1 137/60/1 140/59/1 
f 116/23/1 135/60/1 141/60/1 142/23/1 
f 135/60/1 139/59/1 143/59/1 141/60/1 
f 139/59/1 119/24/1 144/24/1 143/59/1 
f 119/24/1 116/23/1 142/23/1 144/24/1 
f 145/64/1 98/62/1 146/62/1 147/64/1 
f 98/62/1 97/61/1 148/61/1 146/62/1 
f 97/61/1 149/63/1 150/63/1 148/61/1 
f 149/63/1 145/64/1 147/64/1 150/63/1 
f 151/66/1 145/64/1 152/64/1 153/66/1 
f 145/64/1 149/63/1 154/63/1 152/64/1 
f 149/63/1 155/65/1 156/65/1 154/63/1 
f 155/65/1 151/66/1 153/66/1 156/65/1 
f 157/68/1 151/66/1 158/66/1 159/68/1 
f 151/66/1 155/65/1 160/65/1 158/66/1 
f 155/65/1 161/67/1 162/67/1 160/65/1 
f 161/67/1 157/68/1 159/68/1 162/67/1 
f 121/25/1 157/68/1 163/68/1 164/25/1 
f 157/68/1 161/67/1 165/67/1 163/68/1 
f 161/67/1 115/26/1 166/26/1 165/67/1 
f 115/26/1 121/25/1 164/25/1 166/26/1 
f 118/26/18 117/23/18 25/23/18 28/26/18 
f 117/23/19 120/24/19 26/24/19 25/23/19 
f 120/24/20 122/25/20 27/25/20 26/24/20 
f 122/25/21 118/26/21 28/26/21 27/25/21 
f 125/56/18 124/54/18 81/54/18 84/56/18 
f 124/54/19 126/53/19 82/53/19 81/54/19 
f 126/53/20 128/55/20 83/55/20 82/53/20 
f 128/55/21 125/56/21 84/56/21 83/55/21 
f 131/58/18 130/56/18 85/56/18 88/58/18 
f 130/56/19 132/55/19 86/55/19 85/56/19 
f 132/55/20 134/57/20 87/57/20 86/55/20 
f 134/57/21 131/58/21 88/58/21 87/57/21 
f 137/60/18 136/58/18 89/58/18 92/60/18 
f 136/58/19 138/57/19 90/57/19 89/58/19 
f 138/57/20 140/59/20 91/59/20 90/57/20 
f 140/59/21 137/60/21 92/60/21 91/59/21 
f 142/23/18 141/60/18 93/60/18 96/23/18 
f 141/60/19 143/59/19 94/59/19 93/60/19 
f 143/59/20 144/24/20 95/24/20 94/59/20 
f 144/24/21 142/23/21 96/23/21 95/24/21 
f 147/64/20 146/62/20 99/62/20 102/64/20 
f 146/62/21 148/61/21 100/61/21 99/62/21 
f 148/61/18 150/63/18 101/63/18 100/61/18 
f 150/63/19 147/64/19 102/64/19 101/63/19 
f 153/66/20 152/64/20 103/64/20 106/66/20 
f 152/64/21 154/63/21 104/63/21 103/64/21 
f 154/63/18 156/65/18 105/65/18 104/63/18 
f 156/65/19 153/66/19 106/66/19 105/65/19 
f 159/68/20 158/66/20 107/66/20 110/68/20 
f 158/66/21 160/65/21 108/65/21 107/66/21 
f 160/65/18 162/67/18 109/67/18 108/65/18 
f 162/67/19 159/68/19 110/68/19 109/67/19 
f 164/25/20 163/68/20 111/68/20 114/25/20 
f 163/68/21 165/67/21 112/67/21 111/68/21 
f 165/67/18 166/26/18 113/26/18 112/67/18 
f 166/26/19 164/25/19 114/25/19 113/26/19 
f 167/1/2 69/47/2 168/69/2 169/70/2 
f 69/47/2 66/44/2 170/9/2 171/7/2 
f 66/44/2 172/2/2 173/71/2 174/72/2 
f 172/2/2 167/1/2 175/12/2 176/8/2 
f 169/70/22 168/69/22 6/6/22 5/5/22 
f 171/7/23 170/9/23 9/9/23 7/7/23 
f 174/72/24 173/71/24 11/11/24 10/10/24 
f 176/8/25 175/12/25 12/12/25 8/8/25 
f 167/1/2 169/70/2 175/12/2 
f 69/47/3 171/7/3 168/69/3 
f 66/44/2 174/72/2 170/9/2 
f 172/2/2 176/8/2 173/71/2 
f 175/12/26 169/70/26 5/5/26 12/12/26 
f 168/69/27 171/7/27 7/7/27 6/6/27 
f 170/9/28 174/72/28 10/10/28 9/9/28 
f 173/71/29 176/8/29 8/8/29 11/11/29 
f 62/1/1 61/4/1 177/73/1 178/74/1 
f 15/4/1 167/1/1 179/75/1 180/76/1 
f 63/2/1 62/1/1 181/77/1 38/32/1 
f 181/77/6 182/78/6 38/32/6 
f 38/32/1 37/31/1 183/79/1 63/2/1 
f 184/80/1 63/2/1 183/79/1 
f 167/1/1 172/2/1 185/81/1 43/31/1 
f 185/81/6 186/82/6 43/31/6 
f 43/31/1 42/32/1 187/83/1 167/1/1 
f 188/84/1 167/1/1 187/83/1 
f 64/3/1 63/2/1 189/85/1 190/86/1 
f 172/2/1 16/3/1 191/87/1 192/88/1 
f 61/4/1 64/3/1 193/89/1 54/40/1 
f 193/89/6 194/90/6 54/40/6 
f 54/40/1 53/39/1 195/91/1 61/4/1 
f 196/92/1 61/4/1 195/91/1 
f 16/3/1 15/4/1 197/93/1 59/39/1 
f 197/93/6 198/94/6 59/39/6 
f 59/39/1 58/40/1 199/95/1 16/3/1 
f 200/96/1 16/3/1 199/95/1 
f 201/78/1 202/77/1 30/1/1 203/33/1 
f 30/1/1 29/1/1 204/97/1 203/33/1 
f 204/97/1 205/98/1 203/33/1 
f 206/33/1 201/78/1 203/33/1 
f 207/99/1 208/100/1 51/2/1 209/80/1 
f 51/2/1 50/2/1 209/80/1 
f 209/80/1 210/79/1 211/34/1 207/99/1 
f 212/34/1 207/99/1 211/34/1 
f 213/90/1 214/89/1 46/3/1 215/41/1 
f 46/3/1 45/3/1 216/101/1 215/41/1 
f 216/101/1 217/102/1 215/41/1 
f 218/41/1 213/90/1 215/41/1 
f 219/103/1 220/104/1 35/4/1 221/92/1 
f 35/4/1 34/4/1 221/92/1 
f 221/92/1 222/91/1 223/42/1 219/103/1 
f 224/42/1 219/103/1 223/42/1 
f 178/74/10 177/73/10 33/29/10 31/27/10 
f 196/92/13 195/91/13 222/91/13 221/92/13 
f 60/42/10 56/42/10 224/42/10 223/42/10 
f 198/94/11 197/93/11 220/104/11 219/103/11 
f 180/76/12 179/75/12 36/30/12 32/28/12 
f 188/84/13 187/83/13 205/98/13 204/97/13 
f 41/33/10 39/33/10 206/33/10 203/33/10 
f 182/78/11 181/77/11 202/77/11 201/78/11 
f 184/80/11 183/79/11 210/79/11 209/80/11 
f 44/34/12 40/34/12 212/34/12 211/34/12 
f 186/82/13 185/81/13 208/100/13 207/99/13 
f 192/88/10 191/87/10 52/38/10 48/36/10 
f 200/96/11 199/95/11 217/102/11 216/101/11 
f 57/41/12 55/41/12 218/41/12 215/41/12 
f 194/90/13 193/89/13 214/89/13 213/90/13 
f 190/86/12 189/85/12 49/37/12 47/35/12 
f 15/4/1 180/76/1 197/93/1 
f 61/4/1 196/92/1 177/73/1 
f 167/1/1 188/84/1 179/75/1 
f 62/1/1 178/74/1 181/77/1 
f 172/2/1 192/88/1 185/81/1 
f 63/2/1 184/80/1 189/85/1 
f 16/3/1 200/96/1 191/87/1 
f 64/3/1 190/86/1 193/89/1 
f 183/79/1 37/31/1 44/34/1 
f 182/78/1 39/33/1 38/32/1 
f 187/83/1 42/32/1 41/33/1 
f 186/82/1 40/34/1 43/31/1 
f 195/91/1 53/39/1 60/42/1 
f 194/90/1 55/41/1 54/40/1 
f 199/95/1 58/40/1 57/41/1 
f 198/94/1 56/42/1 59/39/1 
f 31/27/1 30/1/1 202/77/1 
f 221/92/1 34/4/1 33/29/1 
f 32/28/1 35/4/1 220/104/1 
f 204/97/1 29/1/1 36/30/1 
f 209/80/1 50/2/1 49/37/1 
f 48/36/1 51/2/1 208/100/1 
f 216/101/1 45/3/1 52/38/1 
f 47/35/1 46/3/1 214/89/1 
f 181/77/15 178/74/15 31/27/15 202/77/15 
f 177/73/14 196/92/14 221/92/14 33/29/14 
f 195/91/14 60/42/14 223/42/14 222/91/14 
f 56/42/15 198/94/15 219/103/15 224/42/15 
f 197/93/16 180/76/16 32/28/16 220/104/16 
f 179/75/17 188/84/17 204/97/17 36/30/17 
f 187/83/14 41/33/14 203/33/14 205/98/14 
f 39/33/15 182/78/15 201/78/15 206/33/15 
f 189/85/16 184/80/16 209/80/16 49/37/16 
f 183/79/16 44/34/16 211/34/16 210/79/16 
f 40/34/17 186/82/17 207/99/17 212/34/17 
f 185/81/14 192/88/14 48/36/14 208/100/14 
f 191/87/15 200/96/15 216/101/15 52/38/15 
f 199/95/16 57/41/16 215/41/16 217/102/16 
f 55/41/17 194/90/17 213/90/17 218/41/17 
f 193/89/17 190/86/17 47/35/17 214/89/17 
# 177 polygons - 60 triangles

