# 3ds Max Wavefront OBJ Exporter v0.97b - (c)2007 guruware
# File Created: 26.02.2014 20:01:43

mtllib Wall01_LP.mtl

#
# object Plane001
#

v  -206.0000 186.0000 -25.0000
v  206.0000 186.0000 -25.0000
v  206.0000 326.0000 -25.0000
v  -206.0000 326.0000 -25.0000
v  -249.0000 125.0171 5.6899
v  -249.0000 109.0132 19.8110
v  -244.0000 105.2640 23.1191
v  244.0000 105.2640 23.1191
v  249.0000 109.0132 19.8110
v  249.0000 125.0171 5.6899
v  244.0000 128.7663 2.3818
v  -244.0000 128.7663 2.3818
v  256.0000 410.0000 30.0000
v  -256.0000 410.0000 30.0000
v  -256.0000 376.0000 0.0000
v  256.0000 376.0000 0.0000
v  -244.0000 85.0000 33.0000
v  -244.0000 17.0000 33.0000
v  -239.0000 12.0000 33.0000
v  239.0000 12.0000 33.0000
v  244.0000 17.0000 33.0000
v  244.0000 85.0000 33.0000
v  239.0000 90.0000 33.0000
v  -239.0000 90.0000 33.0000
v  256.0000 512.0000 30.0000
v  -256.0000 512.0000 30.0000
v  -256.0000 136.0000 -0.0000
v  -206.0000 186.0000 -0.0000
v  -206.0000 326.0000 0.0000
v  256.0000 136.0000 -0.0000
v  206.0000 186.0000 -0.0000
v  206.0000 326.0000 0.0000
v  256.0000 0.0000 30.0000
v  256.0000 102.0000 30.0000
v  246.0000 87.0000 30.0000
v  246.0000 15.0000 30.0000
v  -256.0000 102.0000 30.0000
v  -241.0000 92.0000 30.0000
v  241.0000 92.0000 30.0000
v  -256.0000 0.0000 30.0000
v  -246.0000 15.0000 30.0000
v  -246.0000 87.0000 30.0000
v  241.0000 10.0000 30.0000
v  -241.0000 10.0000 30.0000
v  -251.0000 109.4984 23.3838
v  -251.0000 128.5016 6.6162
v  246.0000 105.7492 26.6919
v  -246.0000 105.7492 26.6919
v  251.0000 128.5016 6.6162
v  251.0000 109.4984 23.3838
v  -246.0000 132.2508 3.3081
v  246.0000 132.2508 3.3081
# 52 vertices

vn 0.0000 -0.0000 1.0000
vn 0.0000 0.6616 0.7498
vn -0.0000 0.6616 0.7498
vn 0.0000 -0.6616 0.7498
vn -0.0000 -0.0000 1.0000
vn 1.0000 0.0000 -0.0000
vn 0.0000 1.0000 0.0000
vn -1.0000 0.0000 -0.0000
vn 0.0000 -1.0000 -0.0000
vn 0.8321 -0.0000 0.5547
vn 0.0000 0.8321 0.5547
vn -0.8321 -0.0000 0.5547
vn 0.0000 -0.8321 0.5547
vn 0.5145 -0.5145 0.6860
vn 0.5145 0.5145 0.6860
vn -0.5145 0.5145 0.6860
vn -0.5145 -0.5145 0.6860
vn 0.8321 0.3670 0.4159
vn 0.0000 0.9909 -0.1346
vn -0.8321 0.3670 0.4159
vn 0.0000 -0.2569 0.9664
vn 0.5145 0.0681 0.8548
vn 0.5145 0.8397 0.1740
vn -0.5145 0.8397 0.1740
vn -0.5145 0.0681 0.8548
# 25 vertex normals

vt 0.4715 0.6982 0.0000
vt 0.0100 0.6982 0.0000
vt 0.0100 0.5414 0.0000
vt 0.4715 0.5414 0.0000
vt 0.0100 0.8560 0.0000
vt 0.0100 0.8321 0.0000
vt 0.0156 0.8265 0.0000
vt 0.5622 0.8265 0.0000
vt 0.5678 0.8321 0.0000
vt 0.5678 0.8560 0.0000
vt 0.5622 0.8616 0.0000
vt 0.0156 0.8616 0.0000
vt 0.0100 0.0957 0.0000
vt 0.5835 0.0957 0.0000
vt 0.5835 0.1465 0.0000
vt 0.0100 0.1465 0.0000
vt 0.5566 0.7243 0.0000
vt 0.5566 0.8004 0.0000
vt 0.5510 0.8060 0.0000
vt 0.0156 0.8060 0.0000
vt 0.0100 0.8004 0.0000
vt 0.0100 0.7243 0.0000
vt 0.0156 0.7187 0.0000
vt 0.5510 0.7187 0.0000
vt 0.0100 0.0100 0.0000
vt 0.5835 0.0100 0.0000
vt 0.5835 0.3480 0.0000
vt 0.5275 0.3060 0.0000
vt 0.5275 0.1884 0.0000
vt 0.0100 0.3480 0.0000
vt 0.0660 0.3060 0.0000
vt 0.0660 0.1884 0.0000
vt 0.3976 0.4738 0.0000
vt 0.5545 0.4738 0.0000
vt 0.5545 0.5018 0.0000
vt 0.3976 0.5018 0.0000
vt 0.0100 0.8822 0.0000
vt 0.4715 0.8822 0.0000
vt 0.4715 0.9102 0.0000
vt 0.0100 0.9102 0.0000
vt 0.2119 0.4738 0.0000
vt 0.3688 0.4738 0.0000
vt 0.3688 0.5018 0.0000
vt 0.2119 0.5018 0.0000
vt 0.4920 0.5414 0.0000
vt 0.9534 0.5414 0.0000
vt 0.9534 0.5694 0.0000
vt 0.4920 0.5694 0.0000
vt 0.0100 0.5209 0.0000
vt 0.0100 0.4066 0.0000
vt 0.0212 0.4234 0.0000
vt 0.0212 0.5041 0.0000
vt 0.5835 0.4066 0.0000
vt 0.5667 0.4178 0.0000
vt 0.0268 0.4178 0.0000
vt 0.5835 0.5209 0.0000
vt 0.5723 0.5041 0.0000
vt 0.5723 0.4234 0.0000
vt 0.0268 0.5097 0.0000
vt 0.5667 0.5097 0.0000
vt 0.5547 0.3951 0.0000
vt 0.4740 0.3951 0.0000
vt 0.4763 0.3911 0.0000
vt 0.5524 0.3911 0.0000
vt 0.5555 0.9655 0.0000
vt 0.0156 0.9655 0.0000
vt 0.0178 0.9614 0.0000
vt 0.5532 0.9614 0.0000
vt 0.2121 0.4589 0.0000
vt 0.1315 0.4620 0.0000
vt 0.1336 0.4578 0.0000
vt 0.2097 0.4550 0.0000
vt 0.5499 0.9900 0.0000
vt 0.0100 0.9900 0.0000
vt 0.0122 0.9860 0.0000
vt 0.5476 0.9860 0.0000
vt 0.5603 0.3920 0.0000
vt 0.5580 0.3880 0.0000
vt 0.4684 0.3920 0.0000
vt 0.4707 0.3880 0.0000
vt 0.0100 0.9623 0.0000
vt 0.0122 0.9583 0.0000
vt 0.1258 0.4591 0.0000
vt 0.1279 0.4549 0.0000
vt 0.5835 0.3685 0.0000
vt 0.5779 0.3982 0.0000
vt 0.5779 0.3769 0.0000
vt 0.0212 0.4024 0.0000
vt 0.5723 0.4024 0.0000
vt 0.0100 0.3685 0.0000
vt 0.0156 0.3769 0.0000
vt 0.0156 0.3982 0.0000
vt 0.5723 0.3727 0.0000
vt 0.0212 0.3727 0.0000
vt 0.3644 0.4620 0.0000
vt 0.3619 0.4337 0.0000
vt 0.3661 0.4356 0.0000
vt 0.3682 0.4594 0.0000
vt 0.0100 0.9307 0.0000
vt 0.5611 0.9307 0.0000
vt 0.5588 0.9347 0.0000
vt 0.0122 0.9347 0.0000
vt 0.5261 0.4629 0.0000
vt 0.5545 0.4622 0.0000
vt 0.5523 0.4663 0.0000
vt 0.5284 0.4669 0.0000
vt 0.5700 0.3766 0.0000
vt 0.0234 0.3766 0.0000
vt 0.5756 0.3808 0.0000
vt 0.3645 0.4278 0.0000
vt 0.3688 0.4297 0.0000
vt 0.5667 0.9338 0.0000
vt 0.5644 0.9378 0.0000
vt 0.0178 0.3808 0.0000
# 114 texture coords

g Plane001
usemtl wire_115115115
s off
f 1/1/1 2/2/1 3/3/1 
f 3/3/1 4/4/1 1/1/1 
f 5/5/2 6/6/2 7/7/2 
f 7/7/2 8/8/2 9/9/2 
f 9/9/2 10/10/2 11/11/2 
f 7/7/3 9/9/3 11/11/3 
f 5/5/3 7/7/3 11/11/3 
f 12/12/2 5/5/2 11/11/2 
f 13/13/4 14/14/4 15/15/4 
f 15/15/4 16/16/4 13/13/4 
f 17/17/5 18/18/5 19/19/5 
f 19/19/1 20/20/1 21/21/1 
f 21/21/5 22/22/5 23/23/5 
f 19/19/1 21/21/1 23/23/1 
f 17/17/1 19/19/1 23/23/1 
f 24/24/1 17/17/1 23/23/1 
f 25/25/1 26/26/1 14/14/1 
f 14/14/1 13/13/1 25/25/1 
f 15/15/1 27/27/1 28/28/1 
f 28/28/1 29/29/1 15/15/1 
f 27/27/1 30/30/1 31/31/1 
f 31/31/1 28/28/1 27/27/1 
f 30/30/1 16/16/1 32/32/1 
f 32/32/1 31/31/1 30/30/1 
f 16/16/1 15/15/1 29/29/1 
f 29/29/1 32/32/1 16/16/1 
f 29/33/6 28/34/6 1/35/6 
f 1/35/6 4/36/6 29/33/6 
f 28/37/7 31/38/7 2/39/7 
f 2/39/7 1/40/7 28/37/7 
f 31/41/8 32/42/8 3/43/8 
f 3/43/8 2/44/8 31/41/8 
f 32/45/9 29/46/9 4/47/9 
f 4/47/9 3/48/9 32/45/9 
f 33/49/1 34/50/1 35/51/1 
f 35/51/5 36/52/5 33/49/5 
f 34/50/1 37/53/1 38/54/1 
f 38/54/1 39/55/1 34/50/1 
f 37/53/1 40/56/1 41/57/1 
f 41/57/5 42/58/5 37/53/5 
f 40/56/1 33/49/1 43/59/1 
f 43/59/1 44/60/1 40/56/1 
f 36/61/10 35/62/10 22/63/10 
f 22/63/10 21/64/10 36/61/10 
f 39/65/11 38/66/11 24/67/11 
f 24/67/11 23/68/11 39/65/11 
f 42/69/12 41/70/12 18/71/12 
f 18/71/12 17/72/12 42/69/12 
f 44/73/13 43/74/13 20/75/13 
f 20/75/13 19/76/13 44/73/13 
f 33/49/1 36/52/1 43/59/1 
f 34/50/1 39/55/1 35/51/1 
f 37/53/1 42/58/1 38/54/1 
f 40/56/1 44/60/1 41/57/1 
f 43/77/14 36/61/14 21/64/14 
f 21/64/14 20/78/14 43/77/14 
f 35/62/15 39/79/15 23/80/15 
f 23/80/15 22/63/15 35/62/15 
f 38/66/16 42/81/16 17/82/16 
f 17/82/16 24/67/16 38/66/16 
f 41/70/17 44/83/17 19/84/17 
f 19/84/17 18/71/17 41/70/17 
f 27/85/3 37/53/3 45/86/3 
f 45/86/2 46/87/2 27/85/2 
f 37/53/2 34/50/2 47/88/2 
f 47/88/2 48/89/2 37/53/2 
f 34/50/3 30/90/3 49/91/3 
f 49/91/2 50/92/2 34/50/2 
f 30/90/2 27/85/2 51/93/2 
f 51/93/2 52/94/2 30/90/2 
f 46/95/18 45/96/18 6/97/18 
f 6/97/18 5/98/18 46/95/18 
f 48/99/19 47/100/19 8/101/19 
f 8/101/19 7/102/19 48/99/19 
f 50/103/20 49/104/20 10/105/20 
f 10/105/20 9/106/20 50/103/20 
f 52/94/21 51/93/21 12/107/21 
f 12/107/21 11/108/21 52/94/21 
f 27/85/2 46/87/2 51/93/2 
f 37/53/3 48/89/3 45/86/3 
f 34/50/2 50/92/2 47/88/2 
f 30/90/3 52/94/3 49/91/3 
f 51/93/22 46/87/22 5/109/22 
f 5/109/22 12/107/22 51/93/22 
f 45/96/23 48/110/23 7/111/23 
f 7/111/23 6/97/23 45/96/23 
f 47/100/24 50/112/24 9/113/24 
f 9/113/24 8/101/24 47/100/24 
f 49/91/25 52/94/25 11/108/25 
f 11/108/25 10/114/25 49/91/25 
# 90 faces

