# 3ds Max Wavefront OBJ Exporter v0.97b - (c)2007 guruware
# File Created: 12.02.2014 09:47:13

mtllib Door02_HP.mtl

#
# object Plane001
#

v  -205.7520 497.5523 67.0000
v  -144.9658 463.4267 67.0000
v  -135.6059 460.9791 67.0000
v  135.6059 460.9791 67.0000
v  144.9658 463.4267 67.0000
v  205.7520 497.5523 67.0000
v  205.1119 500.0000 67.0000
v  -205.1119 500.0000 67.0000
v  -192.9791 399.7440 64.0000
v  -210.0000 430.0625 64.0000
v  -210.0000 410.0000 64.0000
v  -210.0000 376.0000 64.0000
v  -210.0000 136.0000 64.0000
v  -210.0000 102.0000 64.0000
v  -210.0000 0.0000 64.0000
v  -194.0000 0.0000 64.0000
v  256.0000 410.0000 64.0000
v  256.0000 512.0000 64.0000
v  210.0000 430.0625 64.0000
v  210.0000 410.0000 64.0000
v  142.0000 448.0000 62.0000
v  -142.0000 448.0000 62.0000
v  -142.0000 448.0000 26.2717
v  142.0000 448.0000 26.2717
v  -192.0000 398.0000 62.0000
v  -192.0000 0.5124 62.0668
v  -192.0000 10.0000 26.2717
v  -192.0000 398.0000 26.2717
v  192.0000 0.5124 62.0668
v  192.0000 398.0000 62.0000
v  192.0000 398.0000 26.2717
v  192.0000 10.0000 26.2717
v  -190.0000 0.0000 64.0000
v  190.0000 0.0000 64.0000
v  -187.7002 427.3344 64.0000
v  -171.3344 443.7002 64.0000
v  -256.0000 512.0000 64.0000
v  171.3344 443.7002 64.0000
v  187.7002 427.3344 64.0000
v  186.4444 425.7778 26.2717
v  186.4444 425.7778 62.0000
v  -186.4444 425.7778 62.0000
v  -186.4444 425.7778 26.2717
v  -143.7440 448.9791 64.0000
v  143.7440 448.9791 64.0000
v  192.9791 399.7440 64.0000
v  169.7778 442.4445 26.2717
v  169.7778 442.4445 62.0000
v  -169.7778 442.4445 62.0000
v  -169.7778 442.4445 26.2717
v  143.9707 467.9027 26.2717
v  143.9707 467.9027 -26.2716
v  179.2149 460.0779 -26.2716
v  179.2149 460.0779 26.2717
v  -204.0782 435.2143 26.2717
v  -204.0782 435.2143 -26.2716
v  -179.2149 460.0779 -26.2716
v  -179.2149 460.0779 26.2717
v  -143.9707 467.9027 26.2717
v  -211.9027 399.9706 26.2717
v  -206.1421 -4.1421 26.2717
v  206.1421 -4.1421 26.2717
v  211.9027 399.9706 26.2717
v  204.0782 435.2143 26.2717
v  194.0000 0.0000 64.0000
v  210.0000 0.0000 64.0000
v  210.0000 102.0000 64.0000
v  210.0000 136.0000 64.0000
v  210.0000 376.0000 64.0000
v  -256.0000 102.0000 64.0000
v  -256.0000 0.0000 64.0000
v  256.0000 0.0000 64.0000
v  256.0000 102.0000 64.0000
v  256.0000 136.0000 34.0000
v  256.0000 376.0000 34.0000
v  -256.0000 410.0000 64.0000
v  -256.0000 376.0000 34.0000
v  -256.0000 136.0000 34.0000
v  204.0782 435.2143 -26.2716
v  -205.1119 500.0000 -66.9999
v  205.1119 500.0000 -66.9999
v  205.7520 497.5523 -66.9999
v  144.9658 463.4267 -66.9999
v  135.6059 460.9791 -66.9999
v  -135.6059 460.9791 -66.9999
v  -144.9658 463.4267 -66.9999
v  -205.7520 497.5523 -66.9999
v  -210.0000 410.0000 -63.9999
v  -210.0000 430.0625 -63.9999
v  -192.9791 399.7440 -63.9999
v  -210.0000 376.0000 -63.9999
v  -210.0000 136.0000 -63.9999
v  -210.0000 102.0000 -63.9999
v  -210.0000 0.0000 -63.9999
v  -194.0000 0.0000 -63.9999
v  256.0000 410.0000 -63.9999
v  210.0000 410.0000 -63.9999
v  210.0000 430.0625 -63.9999
v  256.0000 512.0000 -63.9999
v  142.0000 448.0000 -61.9999
v  142.0000 448.0000 -26.2716
v  -142.0000 448.0000 -26.2716
v  -142.0000 448.0000 -61.9999
v  -192.0000 398.0000 -61.9999
v  -192.0000 398.0000 -26.2716
v  -192.0000 10.0000 -26.2717
v  -192.0000 0.5124 -62.0667
v  192.0000 0.5124 -62.0667
v  192.0000 10.0000 -26.2716
v  192.0000 398.0000 -26.2716
v  192.0000 398.0000 -61.9999
v  190.0000 0.0000 -63.9999
v  -190.0000 0.0000 -63.9999
v  -187.7002 427.3344 -63.9999
v  -256.0000 512.0000 -63.9999
v  -171.3344 443.7002 -63.9999
v  171.3344 443.7002 -63.9999
v  187.7002 427.3344 -63.9999
v  186.4444 425.7778 -26.2716
v  186.4444 425.7778 -61.9999
v  -186.4445 425.7778 -61.9999
v  -186.4445 425.7778 -26.2716
v  -143.7440 448.9791 -63.9999
v  143.7440 448.9791 -63.9999
v  192.9791 399.7440 -63.9999
v  169.7778 442.4445 -26.2716
v  169.7778 442.4445 -61.9999
v  -169.7778 442.4445 -61.9999
v  -169.7778 442.4445 -26.2716
v  211.9027 399.9706 -26.2716
v  206.1421 -4.1421 -26.2716
v  -143.9708 467.9027 -26.2716
v  -211.9027 399.9706 -26.2716
v  -206.1422 -4.1421 -26.2717
v  194.0000 0.0000 -63.9999
v  210.0000 0.0000 -63.9999
v  210.0000 102.0000 -63.9999
v  210.0000 136.0000 -63.9999
v  210.0000 376.0000 -63.9999
v  -256.0000 102.0000 -63.9999
v  -256.0000 0.0000 -63.9999
v  256.0000 102.0000 -63.9999
v  256.0000 0.0000 -63.9999
v  256.0000 136.0000 -33.9999
v  256.0000 376.0000 -33.9999
v  -256.0000 410.0000 -63.9999
v  -256.0000 376.0000 -33.9999
v  -256.0000 136.0000 -33.9999
v  -222.5973 503.2650 64.0000
v  -212.7599 502.0000 64.0000
v  212.7599 502.0000 64.0000
v  222.5973 503.2650 64.0000
v  -142.3939 454.1417 64.0000
v  -145.4888 461.4267 64.0000
v  -213.4000 499.5523 64.0000
v  142.3939 454.1417 64.0000
v  136.1289 458.9791 64.0000
v  -136.1289 458.9791 64.0000
v  213.4000 499.5523 64.0000
v  145.4888 461.4267 64.0000
v  -222.5973 503.2650 -63.9999
v  -213.4000 499.5523 -63.9999
v  -145.4888 461.4267 -63.9999
v  -142.3939 454.1417 -63.9999
v  222.5973 503.2650 -63.9999
v  212.7599 502.0000 -63.9999
v  -212.7599 502.0000 -63.9999
v  142.3939 454.1417 -63.9999
v  145.4888 461.4267 -63.9999
v  213.4000 499.5523 -63.9999
v  -136.1289 458.9791 -63.9999
v  136.1289 458.9791 -63.9999
# 172 vertices

vn 0.0000 0.0000 1.0000
vn -0.0000 -0.0000 1.0000
vn -0.0000 0.0000 1.0000
vn -0.0985 -0.9951 -0.0000
vn 0.0985 -0.9951 -0.0000
vn 0.9951 -0.0985 -0.0000
vn 1.0000 0.0000 -0.0000
vn -1.0000 0.0000 -0.0000
vn -0.9951 -0.0985 -0.0000
vn -0.0000 0.9666 0.2562
vn 0.0000 0.9666 0.2562
vn -0.8817 -0.4719 -0.0000
vn 0.8817 -0.4719 -0.0000
vn -0.4719 -0.8817 -0.0000
vn 0.4719 -0.8817 -0.0000
vn -0.1090 -0.9940 0.0000
vn -0.4811 -0.8767 0.0000
vn -0.4811 -0.8767 -0.0000
vn 0.8767 -0.4811 -0.0000
vn 0.4811 -0.8767 -0.0000
vn -0.0000 -0.0000 -1.0000
vn -0.0000 0.0000 -1.0000
vn 0.0000 0.0000 -1.0000
vn 0.0000 -0.0000 -1.0000
vn -0.8504 -0.1114 0.5143
vn -0.8785 -0.0491 0.4753
vn -0.6960 -0.0018 0.7180
vn -0.6952 -0.0018 0.7188
vn 0.1115 -0.8507 0.5136
vn 0.0491 -0.8784 0.4753
vn -0.0512 -0.8786 0.4748
vn -0.1156 -0.8473 0.5184
vn 0.6960 0.0001 0.7181
vn 0.6950 0.0001 0.7190
vn 0.8776 -0.0528 0.4765
vn 0.8469 -0.1162 0.5188
vn 0.6817 -0.3067 0.6642
vn 0.6293 -0.3702 0.6833
vn -0.3067 -0.6817 0.6642
vn -0.3702 -0.6293 0.6833
vn 0.3727 -0.6292 0.6821
vn 0.3097 -0.6780 0.6667
vn -0.6292 -0.3727 0.6821
vn -0.6780 -0.3097 0.6667
vn 0.0000 -0.0000 1.0000
vn 0.0000 0.6616 0.7498
vn 0.5463 0.0000 0.8376
vn 0.4393 -0.5944 0.6736
vn -0.4393 -0.5944 0.6736
vn -0.5463 0.0000 0.8376
vn -0.8767 -0.4811 0.0000
vn -0.8767 -0.4811 -0.0000
vn 0.0000 0.9666 -0.2562
vn -0.0000 0.9666 -0.2562
vn -0.7020 0.7121 0.0000
vn -0.9948 -0.1019 0.0000
vn 0.1090 -0.9940 -0.0000
vn 0.9948 -0.1019 -0.0000
vn -0.8504 -0.1114 -0.5143
vn -0.6952 -0.0018 -0.7188
vn -0.6960 -0.0018 -0.7180
vn -0.8785 -0.0491 -0.4753
vn 0.1115 -0.8507 -0.5136
vn -0.1156 -0.8473 -0.5184
vn -0.0512 -0.8786 -0.4748
vn 0.0491 -0.8784 -0.4753
vn 0.6960 0.0001 -0.7181
vn 0.8469 -0.1162 -0.5188
vn 0.8776 -0.0528 -0.4765
vn 0.6950 0.0001 -0.7190
vn 0.6293 -0.3702 -0.6833
vn 0.6817 -0.3067 -0.6642
vn -0.3702 -0.6293 -0.6833
vn -0.3067 -0.6817 -0.6642
vn 0.3727 -0.6292 -0.6821
vn 0.3097 -0.6780 -0.6667
vn -0.6292 -0.3727 -0.6821
vn -0.6780 -0.3097 -0.6667
vn 0.5463 0.0000 -0.8376
vn 0.0000 0.6616 -0.7498
vn 0.4393 -0.5944 -0.6736
vn -0.4393 -0.5944 -0.6736
vn -0.5463 0.0000 -0.8376
vn 0.7020 0.7121 -0.0000
vn 0.0000 0.8321 0.5547
vn -0.4073 -0.7255 0.5547
vn 0.0000 -0.8321 0.5547
vn 0.4073 -0.7255 0.5547
vn -0.4073 -0.7255 -0.5547
vn 0.0000 0.8321 -0.5547
vn 0.4073 -0.7255 -0.5547
vn 0.0000 -0.8321 -0.5547
vn 0.3433 0.0898 0.9349
vn -0.3433 0.0898 0.9349
vn -0.2083 -0.7966 0.5674
vn 0.2083 -0.7966 0.5674
vn -0.2083 -0.7966 -0.5674
vn -0.3433 0.0898 -0.9349
vn 0.3433 0.0898 -0.9349
vn 0.2083 -0.7966 -0.5674
# 100 vertex normals

vt 0.0152 0.7691 0.0000
vt 0.0875 0.7285 0.0000
vt 0.0964 0.7256 0.0000
vt 0.3006 0.7256 0.0000
vt 0.3096 0.7285 0.0000
vt 0.3819 0.7691 0.0000
vt 0.3826 0.7720 0.0000
vt 0.0145 0.7720 0.0000
vt 0.0564 0.6893 0.0000
vt 0.0439 0.7117 0.0000
vt 0.0439 0.6969 0.0000
vt 0.0439 0.6719 0.0000
vt 0.0439 0.4951 0.0000
vt 0.0439 0.4701 0.0000
vt 0.0439 0.3949 0.0000
vt 0.0557 0.3949 0.0000
vt 0.3871 0.6969 0.0000
vt 0.3871 0.7720 0.0000
vt 0.3532 0.7117 0.0000
vt 0.3532 0.6969 0.0000
vt 0.6684 0.5792 0.0000
vt 0.4592 0.5792 0.0000
vt 0.4592 0.5529 0.0000
vt 0.6684 0.5529 0.0000
vt 0.6881 0.9118 0.0000
vt 0.3953 0.9119 0.0000
vt 0.4023 0.8855 0.0000
vt 0.6881 0.8855 0.0000
vt 0.0104 0.9136 0.0000
vt 0.3031 0.9137 0.0000
vt 0.3031 0.9400 0.0000
vt 0.0174 0.9400 0.0000
vt 0.6792 0.9447 0.0000
vt 0.6792 0.9711 0.0000
vt 0.6777 0.9725 0.0000
vt 0.3979 0.9725 0.0000
vt 0.3964 0.9711 0.0000
vt 0.3964 0.9447 0.0000
vt 0.0603 0.7097 0.0000
vt 0.0724 0.7217 0.0000
vt 0.0100 0.7720 0.0000
vt 0.3247 0.7217 0.0000
vt 0.3368 0.7097 0.0000
vt 0.3236 0.9400 0.0000
vt 0.3236 0.9137 0.0000
vt 0.7085 0.9118 0.0000
vt 0.7085 0.8855 0.0000
vt 0.0927 0.7256 0.0000
vt 0.3044 0.7256 0.0000
vt 0.3407 0.6893 0.0000
vt 0.3359 0.9400 0.0000
vt 0.3359 0.9137 0.0000
vt 0.6888 0.5529 0.0000
vt 0.6888 0.5792 0.0000
vt 0.7208 0.9118 0.0000
vt 0.7208 0.8855 0.0000
vt 0.4387 0.5792 0.0000
vt 0.4387 0.5529 0.0000
vt 0.6756 0.6273 0.0000
vt 0.6756 0.5886 0.0000
vt 0.7016 0.5886 0.0000
vt 0.7016 0.6273 0.0000
vt 0.3336 0.8186 0.0000
vt 0.3336 0.7799 0.0000
vt 0.3519 0.7799 0.0000
vt 0.3519 0.8186 0.0000
vt 0.7279 0.2706 0.0000
vt 0.7279 0.0615 0.0000
vt 0.7426 0.0600 0.0000
vt 0.7426 0.2721 0.0000
vt 0.7238 0.0410 0.0000
vt 0.7368 0.0341 0.0000
vt 0.7116 0.0287 0.0000
vt 0.7185 0.0158 0.0000
vt 0.6911 0.0247 0.0000
vt 0.6926 0.0100 0.0000
vt 0.4053 0.0247 0.0000
vt 0.3949 0.0142 0.0000
vt 0.4053 0.3075 0.0000
vt 0.3949 0.3179 0.0000
vt 0.6911 0.3075 0.0000
vt 0.6926 0.3221 0.0000
vt 0.7116 0.3034 0.0000
vt 0.7185 0.3164 0.0000
vt 0.7238 0.2911 0.0000
vt 0.7368 0.2981 0.0000
vt 0.6807 0.9725 0.0000
vt 0.3949 0.9725 0.0000
vt 0.3044 0.9122 0.0000
vt 0.0100 0.9122 0.0000
vt 0.4579 0.5807 0.0000
vt 0.6696 0.5807 0.0000
vt 0.3949 0.9133 0.0000
vt 0.6893 0.9133 0.0000
vt 0.7097 0.9133 0.0000
vt 0.6900 0.5807 0.0000
vt 0.4376 0.5807 0.0000
vt 0.6999 0.5806 0.0000
vt 0.6978 0.5807 0.0000
vt 0.6985 0.5634 0.0000
vt 0.7005 0.5636 0.0000
vt 0.3247 0.9122 0.0000
vt 0.4176 0.5976 0.0000
vt 0.4197 0.5976 0.0000
vt 0.4183 0.6149 0.0000
vt 0.4163 0.6146 0.0000
vt 0.3414 0.3949 0.0000
vt 0.3532 0.3949 0.0000
vt 0.3532 0.4701 0.0000
vt 0.3532 0.4951 0.0000
vt 0.3532 0.6719 0.0000
vt 0.0100 0.4701 0.0000
vt 0.0100 0.3949 0.0000
vt 0.3871 0.3949 0.0000
vt 0.3871 0.4701 0.0000
vt 0.3871 0.4951 0.0000
vt 0.3871 0.6719 0.0000
vt 0.0100 0.6969 0.0000
vt 0.0100 0.6719 0.0000
vt 0.0100 0.4951 0.0000
vt 0.7185 0.6971 0.0000
vt 0.7368 0.6971 0.0000
vt 0.7368 0.7358 0.0000
vt 0.7185 0.7358 0.0000
vt 0.3826 0.3871 0.0000
vt 0.0145 0.3871 0.0000
vt 0.0152 0.3842 0.0000
vt 0.0875 0.3436 0.0000
vt 0.0964 0.3407 0.0000
vt 0.3006 0.3407 0.0000
vt 0.3096 0.3436 0.0000
vt 0.3819 0.3842 0.0000
vt 0.3532 0.3120 0.0000
vt 0.3532 0.3267 0.0000
vt 0.3407 0.3044 0.0000
vt 0.3532 0.2869 0.0000
vt 0.3532 0.1102 0.0000
vt 0.3532 0.0851 0.0000
vt 0.3532 0.0100 0.0000
vt 0.3414 0.0100 0.0000
vt 0.0100 0.3120 0.0000
vt 0.0439 0.3120 0.0000
vt 0.0439 0.3267 0.0000
vt 0.0100 0.3871 0.0000
vt 0.6684 0.5188 0.0000
vt 0.6684 0.5451 0.0000
vt 0.4592 0.5451 0.0000
vt 0.4592 0.5188 0.0000
vt 0.6881 0.8278 0.0000
vt 0.6881 0.8541 0.0000
vt 0.4023 0.8541 0.0000
vt 0.3953 0.8278 0.0000
vt 0.3953 0.7935 0.0000
vt 0.4023 0.7672 0.0000
vt 0.6881 0.7672 0.0000
vt 0.6881 0.7935 0.0000
vt 0.7057 0.9461 0.0000
vt 0.7072 0.9447 0.0000
vt 0.9871 0.9447 0.0000
vt 0.7057 0.9725 0.0000
vt 0.9885 0.9725 0.0000
vt 0.9885 0.9461 0.0000
vt 0.3368 0.3247 0.0000
vt 0.3871 0.3871 0.0000
vt 0.3247 0.3368 0.0000
vt 0.0724 0.3368 0.0000
vt 0.0603 0.3247 0.0000
vt 0.7085 0.7672 0.0000
vt 0.7085 0.7935 0.0000
vt 0.7085 0.8278 0.0000
vt 0.7085 0.8541 0.0000
vt 0.3044 0.3407 0.0000
vt 0.0927 0.3407 0.0000
vt 0.0564 0.3044 0.0000
vt 0.7208 0.7672 0.0000
vt 0.7208 0.7935 0.0000
vt 0.6888 0.5188 0.0000
vt 0.6888 0.5451 0.0000
vt 0.7208 0.8278 0.0000
vt 0.7208 0.8541 0.0000
vt 0.4387 0.5451 0.0000
vt 0.4387 0.5188 0.0000
vt 0.3949 0.6971 0.0000
vt 0.6926 0.6971 0.0000
vt 0.6926 0.7358 0.0000
vt 0.3949 0.7358 0.0000
vt 0.4636 0.6273 0.0000
vt 0.4636 0.5886 0.0000
vt 0.3076 0.8186 0.0000
vt 0.3076 0.7799 0.0000
vt 0.7279 0.4050 0.0000
vt 0.7426 0.4036 0.0000
vt 0.7426 0.6156 0.0000
vt 0.7279 0.6142 0.0000
vt 0.7368 0.6416 0.0000
vt 0.7238 0.6346 0.0000
vt 0.7185 0.6599 0.0000
vt 0.7116 0.6469 0.0000
vt 0.6926 0.6657 0.0000
vt 0.6911 0.6510 0.0000
vt 0.3949 0.6614 0.0000
vt 0.4053 0.6510 0.0000
vt 0.3949 0.3578 0.0000
vt 0.4053 0.3682 0.0000
vt 0.6926 0.3535 0.0000
vt 0.6911 0.3682 0.0000
vt 0.7185 0.3593 0.0000
vt 0.7116 0.3723 0.0000
vt 0.7368 0.3776 0.0000
vt 0.7238 0.3846 0.0000
vt 0.9900 0.9447 0.0000
vt 0.7042 0.9447 0.0000
vt 0.6893 0.7949 0.0000
vt 0.3949 0.7949 0.0000
vt 0.4579 0.5173 0.0000
vt 0.6696 0.5173 0.0000
vt 0.3949 0.8263 0.0000
vt 0.6893 0.8263 0.0000
vt 0.7097 0.8263 0.0000
vt 0.6900 0.5173 0.0000
vt 0.4376 0.5173 0.0000
vt 0.4163 0.6397 0.0000
vt 0.4176 0.6227 0.0000
vt 0.4197 0.6228 0.0000
vt 0.4183 0.6401 0.0000
vt 0.7097 0.7949 0.0000
vt 0.4190 0.5726 0.0000
vt 0.4183 0.5897 0.0000
vt 0.4163 0.5897 0.0000
vt 0.4169 0.5724 0.0000
vt 0.0439 0.0100 0.0000
vt 0.0557 0.0100 0.0000
vt 0.0439 0.0851 0.0000
vt 0.0439 0.1102 0.0000
vt 0.0439 0.2869 0.0000
vt 0.3871 0.0851 0.0000
vt 0.3871 0.0100 0.0000
vt 0.0100 0.0851 0.0000
vt 0.0100 0.0100 0.0000
vt 0.0100 0.1102 0.0000
vt 0.0100 0.2869 0.0000
vt 0.3871 0.3120 0.0000
vt 0.3871 0.2869 0.0000
vt 0.3871 0.1102 0.0000
vt 0.0100 0.8887 0.0000
vt 0.0100 0.8500 0.0000
vt 0.3136 0.8500 0.0000
vt 0.3136 0.8887 0.0000
vt 0.0100 0.8186 0.0000
vt 0.0100 0.7799 0.0000
vt 0.4376 0.6273 0.0000
vt 0.4376 0.5886 0.0000
vt 0.0143 0.7720 0.0000
vt 0.3828 0.7720 0.0000
vt 0.0880 0.7282 0.0000
vt 0.0147 0.7694 0.0000
vt 0.4811 0.6555 0.0000
vt 0.3007 0.7256 0.0000
vt 0.3824 0.7694 0.0000
vt 0.3091 0.7282 0.0000
vt 0.3824 0.3844 0.0000
vt 0.3091 0.3433 0.0000
vt 0.3787 0.4261 0.0000
vt 0.0143 0.3871 0.0000
vt 0.3828 0.3871 0.0000
vt 0.0880 0.3433 0.0000
vt 0.0147 0.3844 0.0000
vt 0.3007 0.3407 0.0000
# 268 texture coords

g Plane001
usemtl wire_115115115
s off
f 1/1/1 2/2/1 3/3/1 
f 3/3/1 4/4/1 5/5/1 
f 5/5/1 6/6/1 7/7/1 
f 3/3/1 5/5/1 7/7/1 
f 1/1/1 3/3/1 7/7/1 
f 8/8/1 1/1/1 7/7/1 
f 9/9/1 10/10/1 11/11/1 
f 9/9/2 11/11/2 12/12/2 
f 9/9/3 12/12/3 13/13/3 
f 9/9/1 13/13/1 14/14/1 
f 9/9/1 14/14/1 15/15/1 
f 16/16/1 9/9/1 15/15/1 
f 17/17/1 18/18/1 19/19/1 
f 19/19/1 20/20/1 17/17/1 
s 1
f 21/21/4 22/22/5 23/23/5 
f 23/23/5 24/24/4 21/21/4 
f 25/25/6 26/26/7 27/27/7 
f 27/27/7 28/28/6 25/25/6 
f 29/29/8 30/30/9 31/31/9 
f 31/31/9 32/32/8 29/29/8 
s off
f 27/33/10 26/34/10 33/35/10 
f 33/35/11 34/36/11 29/37/11 
f 33/35/11 29/37/11 32/38/11 
f 27/33/11 33/35/11 32/38/11 
f 35/39/1 36/40/1 37/41/1 
f 38/42/1 39/43/1 18/18/1 
s 1
f 40/44/12 31/31/9 30/30/9 
f 30/30/9 41/45/12 40/44/12 
f 42/46/13 25/25/6 28/28/6 
f 28/28/6 43/47/13 42/46/13 
s off
f 35/39/1 37/41/1 10/10/1 
f 10/10/1 9/9/1 35/39/1 
f 36/40/1 44/48/1 37/41/1 
f 18/18/1 45/49/1 38/42/1 
f 39/43/1 46/50/1 19/19/1 
f 19/19/1 18/18/1 39/43/1 
s 1
f 47/51/14 40/44/12 41/45/12 
f 41/45/12 48/52/14 47/51/14 
f 24/24/4 47/53/14 48/54/14 
f 48/54/14 21/21/4 24/24/4 
f 49/55/15 42/46/13 43/47/13 
f 43/47/13 50/56/15 49/55/15 
f 22/22/5 49/57/15 50/58/15 
f 50/58/15 23/23/5 22/22/5 
s 4
f 51/59/16 52/60/16 53/61/17 
f 53/61/17 54/62/18 51/59/16 
f 55/63/19 56/64/19 57/65/20 
f 57/65/20 58/66/20 55/63/19 
s off
f 24/67/21 23/68/21 59/69/21 
f 59/69/22 51/70/22 24/67/22 
f 23/68/21 50/71/21 58/72/21 
f 58/72/21 59/69/21 23/68/21 
f 50/71/23 43/73/23 55/74/23 
f 55/74/23 58/72/23 50/71/23 
f 43/73/21 28/75/21 60/76/21 
f 60/76/21 55/74/21 43/73/21 
f 28/75/24 27/77/24 61/78/24 
f 61/78/21 60/76/21 28/75/21 
f 27/77/21 32/79/21 62/80/21 
f 62/80/22 61/78/22 27/77/22 
f 32/79/24 31/81/24 63/82/24 
f 63/82/21 62/80/21 32/79/21 
f 31/81/24 40/83/24 64/84/24 
f 64/84/24 63/82/24 31/81/24 
f 40/83/23 47/85/23 54/86/23 
f 54/86/23 64/84/23 40/83/23 
f 47/85/24 24/67/24 51/70/24 
f 51/70/24 54/86/24 47/85/24 
f 33/35/11 26/34/11 16/87/11 
f 65/88/11 29/37/11 34/36/11 
s 8
f 46/89/25 30/30/26 29/29/27 
f 29/29/27 65/90/28 46/89/25 
f 44/91/29 22/22/30 21/21/31 
f 21/21/31 45/92/32 44/91/29 
f 16/93/33 26/26/34 25/25/35 
f 25/25/35 9/94/36 16/93/33 
f 9/94/36 25/25/35 42/46/37 
f 42/46/37 35/95/38 9/94/36 
f 45/92/32 21/21/31 48/54/39 
f 48/54/39 38/96/40 45/92/32 
f 36/97/41 49/57/42 22/22/30 
f 22/22/30 44/91/29 36/97/41 
f 35/98/38 42/99/37 49/100/42 
f 49/100/42 36/101/41 35/98/38 
f 39/102/43 41/45/44 30/30/26 
f 30/30/26 46/89/25 39/102/43 
f 38/103/40 48/104/39 41/105/44 
f 41/105/44 39/106/43 38/103/40 
s off
f 46/50/1 65/107/1 66/108/1 
f 46/50/1 66/108/1 67/109/1 
f 46/50/1 67/109/1 68/110/1 
f 46/50/1 68/110/1 69/111/1 
f 46/50/45 69/111/45 20/20/45 
f 19/19/1 46/50/1 20/20/1 
f 70/112/1 71/113/1 15/15/1 
f 15/15/1 14/14/1 70/112/1 
f 67/109/1 66/108/1 72/114/1 
f 72/114/1 73/115/1 67/109/1 
f 67/109/46 73/115/46 74/116/46 
f 74/116/47 68/110/47 67/109/47 
f 68/110/47 74/116/47 75/117/47 
f 75/117/47 69/111/47 68/110/47 
f 69/111/48 75/117/48 17/17/48 
f 17/17/45 20/20/45 69/111/45 
f 10/10/1 37/41/1 76/118/1 
f 76/118/1 11/11/1 10/10/1 
f 12/12/45 11/11/45 76/118/45 
f 76/118/49 77/119/49 12/12/49 
f 13/13/50 12/12/50 77/119/50 
f 77/119/50 78/120/50 13/13/50 
f 14/14/50 13/13/50 78/120/50 
f 78/120/46 70/112/46 14/14/46 
s 4
f 64/121/51 54/122/18 53/123/17 
f 53/123/17 79/124/52 64/121/51 
s off
f 80/125/23 81/126/23 82/127/23 
f 82/127/23 83/128/23 84/129/23 
f 84/129/23 85/130/23 86/131/23 
f 82/127/23 84/129/23 86/131/23 
f 80/125/23 82/127/23 86/131/23 
f 87/132/23 80/125/23 86/131/23 
f 88/133/23 89/134/23 90/135/23 
f 91/136/23 88/133/23 90/135/23 
f 92/137/23 91/136/23 90/135/23 
f 93/138/23 92/137/23 90/135/23 
f 94/139/23 93/138/23 90/135/23 
f 95/140/23 94/139/23 90/135/23 
f 96/141/23 97/142/23 98/143/23 
f 98/143/23 99/144/23 96/141/23 
s 2
f 100/145/4 101/146/4 102/147/5 
f 102/147/5 103/148/5 100/145/4 
f 104/149/6 105/150/6 106/151/7 
f 106/151/7 107/152/7 104/149/6 
f 108/153/8 109/154/8 110/155/9 
f 110/155/9 111/156/9 108/153/8 
s off
f 108/157/53 112/158/53 113/159/53 
f 109/160/53 108/157/53 113/159/53 
f 106/161/53 109/160/53 113/159/53 
f 106/161/54 113/159/54 107/162/54 
f 114/163/23 115/164/23 116/165/23 
f 117/166/23 99/144/23 118/167/23 
s 2
f 119/168/12 120/169/12 111/156/9 
f 111/156/9 110/155/9 119/168/12 
f 121/170/13 122/171/13 105/150/6 
f 105/150/6 104/149/6 121/170/13 
s off
f 114/163/23 90/135/23 89/134/23 
f 89/134/23 115/164/23 114/163/23 
f 116/165/23 115/164/23 123/172/23 
f 99/144/23 117/166/23 124/173/23 
f 118/167/23 99/144/23 98/143/23 
f 98/143/23 125/174/23 118/167/23 
s 2
f 126/175/14 127/176/14 120/169/12 
f 120/169/12 119/168/12 126/175/14 
f 101/146/4 100/145/4 127/177/14 
f 127/177/14 126/178/14 101/146/4 
f 128/179/15 129/180/15 122/171/13 
f 122/171/13 121/170/13 128/179/15 
f 103/148/5 102/147/5 129/181/15 
f 129/181/15 128/182/15 103/148/5 
s 4
f 62/183/55 63/184/56 130/185/56 
f 130/185/56 131/186/55 62/183/55 
f 51/59/16 59/187/57 132/188/57 
f 132/188/57 52/60/16 51/59/16 
f 55/63/19 60/189/58 133/190/58 
f 133/190/58 56/64/19 55/63/19 
s off
f 101/191/3 52/192/3 132/193/3 
f 132/193/2 102/194/2 101/191/2 
f 102/194/2 132/193/2 57/195/2 
f 57/195/2 129/196/2 102/194/2 
f 129/196/1 57/195/1 56/197/1 
f 56/197/1 122/198/1 129/196/1 
f 122/198/2 56/197/2 133/199/2 
f 133/199/2 105/200/2 122/198/2 
f 105/200/2 133/199/2 134/201/2 
f 134/201/45 106/202/45 105/200/45 
f 106/202/3 134/201/3 131/203/3 
f 131/203/2 109/204/2 106/202/2 
f 109/204/2 131/203/2 130/205/2 
f 130/205/45 110/206/45 109/204/45 
f 110/206/1 130/205/1 79/207/1 
f 79/207/1 119/208/1 110/206/1 
f 119/208/1 79/207/1 53/209/1 
f 53/209/1 126/210/1 119/208/1 
f 126/210/1 53/209/1 52/192/1 
f 52/192/1 101/191/1 126/210/1 
f 113/159/53 95/211/53 107/162/53 
f 135/212/53 112/158/53 108/157/53 
s 16
f 125/213/59 135/214/60 108/153/61 
f 108/153/61 111/156/62 125/213/59 
f 123/215/63 124/216/64 100/145/65 
f 100/145/65 103/148/66 123/215/63 
f 95/217/67 90/218/68 104/149/69 
f 104/149/69 107/152/70 95/217/67 
f 90/218/68 114/219/71 121/170/72 
f 121/170/72 104/149/69 90/218/68 
f 124/216/64 117/220/73 127/177/74 
f 127/177/74 100/145/65 124/216/64 
f 116/221/75 123/215/63 103/148/66 
f 103/148/66 128/182/76 116/221/75 
f 114/222/71 116/223/75 128/224/76 
f 128/224/76 121/225/72 114/222/71 
f 118/226/77 125/213/59 111/156/62 
f 111/156/62 120/169/78 118/226/77 
f 117/227/73 118/228/77 120/229/78 
f 120/229/78 127/230/74 117/227/73 
s off
f 136/231/23 135/232/23 125/174/23 
f 137/233/23 136/231/23 125/174/23 
f 138/234/23 137/233/23 125/174/23 
f 139/235/23 138/234/23 125/174/23 
f 97/142/23 139/235/23 125/174/23 
f 98/143/23 97/142/23 125/174/23 
f 140/236/23 93/138/23 94/139/23 
f 94/139/23 141/237/23 140/236/23 
f 137/233/23 142/238/23 143/239/23 
f 143/239/23 136/231/23 137/233/23 
f 137/233/79 138/234/79 144/240/79 
f 144/240/80 142/238/80 137/233/80 
f 138/234/79 139/235/79 145/241/79 
f 145/241/79 144/240/79 138/234/79 
f 139/235/23 97/142/23 96/141/23 
f 96/141/81 145/241/81 139/235/81 
f 89/134/23 88/133/23 146/242/23 
f 146/242/23 115/164/23 89/134/23 
f 91/136/82 147/243/82 146/242/82 
f 146/242/23 88/133/23 91/136/23 
f 92/137/83 148/244/83 147/243/83 
f 147/243/83 91/136/83 92/137/83 
f 93/138/80 140/236/80 148/244/80 
f 148/244/83 92/137/83 93/138/83 
s 4
f 62/245/55 131/246/55 134/247/84 
f 134/247/84 61/248/84 62/245/55 
f 60/189/58 61/249/84 134/250/84 
f 134/250/84 133/190/58 60/189/58 
f 64/121/51 79/124/52 130/185/56 
f 130/185/56 63/184/56 64/121/51 
f 59/187/57 58/251/20 57/252/20 
f 57/252/20 132/188/57 59/187/57 
s off
f 37/41/1 149/41/1 150/253/1 
f 18/18/1 37/41/1 150/253/1 
f 150/253/1 151/254/1 152/18/1 
f 18/18/1 150/253/1 152/18/1 
f 44/48/1 153/48/1 154/255/1 
f 37/41/1 44/48/1 154/255/1 
f 154/255/1 155/256/1 149/41/1 
f 37/41/1 154/255/1 149/41/1 
f 45/92/1 156/257/1 157/258/1 
f 44/91/1 45/92/1 157/258/1 
f 157/258/1 158/3/1 153/48/1 
f 44/91/1 157/258/1 153/48/1 
f 18/18/1 152/18/1 159/259/1 
f 45/49/1 18/18/1 159/259/1 
f 159/259/1 160/260/1 156/257/1 
f 45/49/1 159/259/1 156/257/1 
f 115/164/23 161/164/23 162/261/23 
f 123/172/23 115/164/23 162/261/23 
f 162/261/23 163/262/23 164/263/23 
f 123/172/23 162/261/23 164/263/23 
f 99/144/23 165/144/23 166/264/23 
f 115/164/23 99/144/23 166/264/23 
f 166/264/23 167/265/23 161/164/23 
f 115/164/23 166/264/23 161/164/23 
f 124/173/23 168/173/23 169/266/23 
f 99/144/23 124/173/23 169/266/23 
f 169/266/23 170/267/23 165/144/23 
f 99/144/23 169/266/23 165/144/23 
f 123/215/23 164/263/23 171/268/23 
f 124/216/23 123/215/23 171/268/23 
f 171/268/23 172/129/23 168/173/23 
f 124/216/23 171/268/23 168/173/23 
f 151/254/85 150/253/85 8/8/85 
f 8/8/85 7/7/85 151/254/85 
f 155/256/86 154/255/86 2/2/86 
f 2/2/86 1/1/86 155/256/86 
f 158/3/87 157/258/87 4/4/87 
f 4/4/87 3/3/87 158/3/87 
f 160/260/88 159/259/88 6/6/88 
f 6/6/88 5/5/88 160/260/88 
f 163/262/89 162/261/89 87/132/89 
f 87/132/89 86/131/89 163/262/89 
f 167/265/90 166/264/90 81/126/90 
f 81/126/90 80/125/90 167/265/90 
f 170/267/91 169/266/91 83/128/91 
f 83/128/91 82/127/91 170/267/91 
f 172/129/92 171/268/92 85/130/92 
f 85/130/92 84/129/92 172/129/92 
f 152/18/1 151/254/1 159/259/1 
f 149/41/1 155/256/1 150/253/1 
f 153/48/1 158/3/1 154/255/1 
f 156/257/1 160/260/1 157/258/1 
f 164/263/23 163/262/23 171/268/23 
f 161/164/23 167/265/23 162/261/23 
f 165/144/23 170/267/23 166/264/23 
f 168/173/23 172/129/23 169/266/23 
f 159/259/93 151/254/93 7/7/93 
f 7/7/93 6/6/93 159/259/93 
f 150/253/94 155/256/94 1/1/94 
f 1/1/94 8/8/94 150/253/94 
f 154/255/95 158/3/95 3/3/95 
f 3/3/95 2/2/95 154/255/95 
f 157/258/96 160/260/96 5/5/96 
f 5/5/96 4/4/96 157/258/96 
f 171/268/97 163/262/97 86/131/97 
f 86/131/97 85/130/97 171/268/97 
f 162/261/98 167/265/98 80/125/98 
f 80/125/98 87/132/98 162/261/98 
f 166/264/99 170/267/99 82/127/99 
f 82/127/99 81/126/99 166/264/99 
f 169/266/100 172/129/100 84/129/100 
f 84/129/100 83/128/100 169/266/100 
# 308 faces

