# 3ds Max Wavefront OBJ Exporter v0.97b - (c)2007 guruware
# File Created: 12.02.2014 09:44:05

mtllib Door02_LP.mtl

#
# object Plane001
#

v  -143.7440 448.9791 64.0000
v  143.7440 448.9791 64.0000
v  256.0000 512.0000 64.0000
v  -256.0000 512.0000 64.0000
v  -192.9791 399.7440 64.0000
v  -210.0000 430.0625 64.0000
v  -210.0000 410.0000 64.0000
v  -210.0000 376.0000 64.0000
v  -210.0000 136.0000 64.0000
v  -210.0000 102.0000 64.0000
v  -210.0000 0.0000 64.0000
v  -194.0000 0.0000 64.0000
v  256.0000 410.0000 64.0000
v  210.0000 430.0625 64.0000
v  210.0000 410.0000 64.0000
v  142.0000 448.0000 62.0000
v  -142.0000 448.0000 62.0000
v  -142.0000 448.0000 26.2717
v  142.0000 448.0000 26.2717
v  -192.0000 398.0000 62.0000
v  -192.0000 0.5124 62.0668
v  -192.0000 10.0000 26.2717
v  -192.0000 398.0000 26.2717
v  192.0000 0.5124 62.0668
v  192.0000 398.0000 62.0000
v  192.0000 398.0000 26.2717
v  192.0000 10.0000 26.2717
v  -190.0000 0.0000 64.0000
v  190.0000 0.0000 64.0000
v  -187.7002 427.3344 64.0000
v  -171.3344 443.7002 64.0000
v  171.3344 443.7002 64.0000
v  187.7002 427.3344 64.0000
v  186.4444 425.7778 26.2717
v  186.4444 425.7778 62.0000
v  -186.4444 425.7778 62.0000
v  -186.4444 425.7778 26.2717
v  192.9791 399.7440 64.0000
v  169.7778 442.4445 26.2717
v  169.7778 442.4445 62.0000
v  -169.7778 442.4445 62.0000
v  -169.7778 442.4445 26.2717
v  143.9707 467.9027 26.2717
v  143.9707 467.9027 -26.2716
v  179.2149 460.0779 -26.2716
v  179.2149 460.0779 26.2717
v  -204.0782 435.2143 26.2717
v  -204.0782 435.2143 -26.2716
v  -179.2149 460.0779 -26.2716
v  -179.2149 460.0779 26.2717
v  -143.9707 467.9027 26.2717
v  -211.9027 399.9706 26.2717
v  -206.1421 -4.1421 26.2717
v  206.1421 -4.1421 26.2717
v  211.9027 399.9706 26.2717
v  204.0782 435.2143 26.2717
v  194.0000 0.0000 64.0000
v  210.0000 0.0000 64.0000
v  210.0000 102.0000 64.0000
v  210.0000 136.0000 64.0000
v  210.0000 376.0000 64.0000
v  -256.0000 102.0000 64.0000
v  -256.0000 0.0000 64.0000
v  256.0000 0.0000 64.0000
v  256.0000 102.0000 64.0000
v  256.0000 136.0000 34.0000
v  256.0000 376.0000 34.0000
v  -256.0000 410.0000 64.0000
v  -256.0000 376.0000 34.0000
v  -256.0000 136.0000 34.0000
v  204.0782 435.2143 -26.2716
v  -143.7440 448.9791 -63.9999
v  -256.0000 512.0000 -63.9999
v  256.0000 512.0000 -63.9999
v  143.7440 448.9791 -63.9999
v  -210.0000 410.0000 -63.9999
v  -210.0000 430.0625 -63.9999
v  -192.9791 399.7440 -63.9999
v  -210.0000 376.0000 -63.9999
v  -210.0000 136.0000 -63.9999
v  -210.0000 102.0000 -63.9999
v  -210.0000 0.0000 -63.9999
v  -194.0000 0.0000 -63.9999
v  256.0000 410.0000 -63.9999
v  210.0000 410.0000 -63.9999
v  210.0000 430.0625 -63.9999
v  142.0000 448.0000 -61.9999
v  142.0000 448.0000 -26.2716
v  -142.0000 448.0000 -26.2716
v  -142.0000 448.0000 -61.9999
v  -192.0000 398.0000 -61.9999
v  -192.0000 398.0000 -26.2716
v  -192.0000 10.0000 -26.2717
v  -192.0000 0.5124 -62.0667
v  192.0000 0.5124 -62.0667
v  192.0000 10.0000 -26.2716
v  192.0000 398.0000 -26.2716
v  192.0000 398.0000 -61.9999
v  190.0000 0.0000 -63.9999
v  -190.0000 0.0000 -63.9999
v  -187.7002 427.3344 -63.9999
v  -171.3344 443.7002 -63.9999
v  171.3344 443.7002 -63.9999
v  187.7002 427.3344 -63.9999
v  186.4444 425.7778 -26.2716
v  186.4444 425.7778 -61.9999
v  -186.4445 425.7778 -61.9999
v  -186.4445 425.7778 -26.2716
v  192.9791 399.7440 -63.9999
v  169.7778 442.4445 -26.2716
v  169.7778 442.4445 -61.9999
v  -169.7778 442.4445 -61.9999
v  -169.7778 442.4445 -26.2716
v  211.9027 399.9706 -26.2716
v  206.1421 -4.1421 -26.2716
v  -143.9708 467.9027 -26.2716
v  -211.9027 399.9706 -26.2716
v  -206.1422 -4.1421 -26.2717
v  194.0000 0.0000 -63.9999
v  210.0000 0.0000 -63.9999
v  210.0000 102.0000 -63.9999
v  210.0000 136.0000 -63.9999
v  210.0000 376.0000 -63.9999
v  -256.0000 102.0000 -63.9999
v  -256.0000 0.0000 -63.9999
v  256.0000 102.0000 -63.9999
v  256.0000 0.0000 -63.9999
v  256.0000 136.0000 -33.9999
v  256.0000 376.0000 -33.9999
v  -256.0000 410.0000 -63.9999
v  -256.0000 376.0000 -33.9999
v  -256.0000 136.0000 -33.9999
# 132 vertices

vn 0.0000 0.0000 1.0000
vn -0.0000 -0.0000 1.0000
vn -0.0000 0.0000 1.0000
vn -0.0985 -0.9951 -0.0000
vn 0.0985 -0.9951 -0.0000
vn 0.9951 -0.0985 -0.0000
vn 1.0000 0.0000 -0.0000
vn -1.0000 0.0000 -0.0000
vn -0.9951 -0.0985 -0.0000
vn -0.0000 0.9666 0.2562
vn 0.0000 0.9666 0.2562
vn -0.8817 -0.4719 -0.0000
vn 0.8817 -0.4719 -0.0000
vn -0.4719 -0.8817 -0.0000
vn 0.4719 -0.8817 -0.0000
vn -0.1090 -0.9940 0.0000
vn -0.4811 -0.8767 0.0000
vn -0.4811 -0.8767 -0.0000
vn 0.8767 -0.4811 -0.0000
vn 0.4811 -0.8767 -0.0000
vn -0.0000 -0.0000 -1.0000
vn -0.0000 0.0000 -1.0000
vn 0.0000 0.0000 -1.0000
vn 0.0000 -0.0000 -1.0000
vn -0.8504 -0.1114 0.5143
vn -0.8785 -0.0491 0.4753
vn -0.6960 -0.0018 0.7180
vn -0.6952 -0.0018 0.7188
vn 0.1115 -0.8507 0.5136
vn 0.0491 -0.8784 0.4753
vn -0.0512 -0.8786 0.4748
vn -0.1156 -0.8473 0.5184
vn 0.6960 0.0001 0.7181
vn 0.6950 0.0001 0.7190
vn 0.8776 -0.0528 0.4765
vn 0.8469 -0.1162 0.5188
vn 0.6817 -0.3067 0.6642
vn 0.6293 -0.3702 0.6833
vn -0.3067 -0.6817 0.6642
vn -0.3702 -0.6293 0.6833
vn 0.3727 -0.6292 0.6821
vn 0.3097 -0.6780 0.6667
vn -0.6292 -0.3727 0.6821
vn -0.6780 -0.3097 0.6667
vn 0.0000 -0.0000 1.0000
vn 0.0000 0.6616 0.7498
vn 0.5463 0.0000 0.8376
vn 0.4393 -0.5944 0.6736
vn -0.4393 -0.5944 0.6736
vn -0.5463 0.0000 0.8376
vn -0.8767 -0.4811 0.0000
vn -0.8767 -0.4811 -0.0000
vn 0.0000 0.9666 -0.2562
vn -0.0000 0.9666 -0.2562
vn -0.7020 0.7121 0.0000
vn -0.9948 -0.1019 0.0000
vn 0.1090 -0.9940 -0.0000
vn 0.9948 -0.1019 -0.0000
vn -0.8504 -0.1114 -0.5143
vn -0.6952 -0.0018 -0.7188
vn -0.6960 -0.0018 -0.7180
vn -0.8785 -0.0491 -0.4753
vn 0.1115 -0.8507 -0.5136
vn -0.1156 -0.8473 -0.5184
vn -0.0512 -0.8786 -0.4748
vn 0.0491 -0.8784 -0.4753
vn 0.6960 0.0001 -0.7181
vn 0.8469 -0.1162 -0.5188
vn 0.8776 -0.0528 -0.4765
vn 0.6950 0.0001 -0.7190
vn 0.6293 -0.3702 -0.6833
vn 0.6817 -0.3067 -0.6642
vn -0.3702 -0.6293 -0.6833
vn -0.3067 -0.6817 -0.6642
vn 0.3727 -0.6292 -0.6821
vn 0.3097 -0.6780 -0.6667
vn -0.6292 -0.3727 -0.6821
vn -0.6780 -0.3097 -0.6667
vn 0.5463 0.0000 -0.8376
vn 0.0000 0.6616 -0.7498
vn 0.4393 -0.5944 -0.6736
vn -0.4393 -0.5944 -0.6736
vn -0.5463 0.0000 -0.8376
vn 0.7020 0.7121 -0.0000
# 84 vertex normals

vt 0.0927 0.7256 0.0000
vt 0.3044 0.7256 0.0000
vt 0.3871 0.7720 0.0000
vt 0.0100 0.7720 0.0000
vt 0.0564 0.6893 0.0000
vt 0.0439 0.7117 0.0000
vt 0.0439 0.6969 0.0000
vt 0.0439 0.6719 0.0000
vt 0.0439 0.4951 0.0000
vt 0.0439 0.4701 0.0000
vt 0.0439 0.3949 0.0000
vt 0.0557 0.3949 0.0000
vt 0.3871 0.6969 0.0000
vt 0.3532 0.7117 0.0000
vt 0.3532 0.6969 0.0000
vt 0.6684 0.5792 0.0000
vt 0.4592 0.5792 0.0000
vt 0.4592 0.5529 0.0000
vt 0.6684 0.5529 0.0000
vt 0.6881 0.9118 0.0000
vt 0.3953 0.9119 0.0000
vt 0.4023 0.8855 0.0000
vt 0.6881 0.8855 0.0000
vt 0.0104 0.9136 0.0000
vt 0.3031 0.9137 0.0000
vt 0.3031 0.9400 0.0000
vt 0.0174 0.9400 0.0000
vt 0.6792 0.9447 0.0000
vt 0.6792 0.9711 0.0000
vt 0.6777 0.9725 0.0000
vt 0.3979 0.9725 0.0000
vt 0.3964 0.9711 0.0000
vt 0.3964 0.9447 0.0000
vt 0.0603 0.7097 0.0000
vt 0.0724 0.7217 0.0000
vt 0.3247 0.7217 0.0000
vt 0.3368 0.7097 0.0000
vt 0.3236 0.9400 0.0000
vt 0.3236 0.9137 0.0000
vt 0.7085 0.9118 0.0000
vt 0.7085 0.8855 0.0000
vt 0.3407 0.6893 0.0000
vt 0.3359 0.9400 0.0000
vt 0.3359 0.9137 0.0000
vt 0.6888 0.5529 0.0000
vt 0.6888 0.5792 0.0000
vt 0.7208 0.9118 0.0000
vt 0.7208 0.8855 0.0000
vt 0.4387 0.5792 0.0000
vt 0.4387 0.5529 0.0000
vt 0.6756 0.6273 0.0000
vt 0.6756 0.5886 0.0000
vt 0.7016 0.5886 0.0000
vt 0.7016 0.6273 0.0000
vt 0.3336 0.8186 0.0000
vt 0.3336 0.7799 0.0000
vt 0.3519 0.7799 0.0000
vt 0.3519 0.8186 0.0000
vt 0.7279 0.2706 0.0000
vt 0.7279 0.0615 0.0000
vt 0.7426 0.0600 0.0000
vt 0.7426 0.2721 0.0000
vt 0.7238 0.0410 0.0000
vt 0.7368 0.0341 0.0000
vt 0.7116 0.0287 0.0000
vt 0.7185 0.0158 0.0000
vt 0.6911 0.0247 0.0000
vt 0.6926 0.0100 0.0000
vt 0.4053 0.0247 0.0000
vt 0.3949 0.0142 0.0000
vt 0.4053 0.3075 0.0000
vt 0.3949 0.3179 0.0000
vt 0.6911 0.3075 0.0000
vt 0.6926 0.3221 0.0000
vt 0.7116 0.3034 0.0000
vt 0.7185 0.3164 0.0000
vt 0.7238 0.2911 0.0000
vt 0.7368 0.2981 0.0000
vt 0.6807 0.9725 0.0000
vt 0.3949 0.9725 0.0000
vt 0.3044 0.9122 0.0000
vt 0.0100 0.9122 0.0000
vt 0.4579 0.5807 0.0000
vt 0.6696 0.5807 0.0000
vt 0.3949 0.9133 0.0000
vt 0.6893 0.9133 0.0000
vt 0.7097 0.9133 0.0000
vt 0.6900 0.5807 0.0000
vt 0.4376 0.5807 0.0000
vt 0.6999 0.5806 0.0000
vt 0.6978 0.5807 0.0000
vt 0.6985 0.5634 0.0000
vt 0.7005 0.5636 0.0000
vt 0.3247 0.9122 0.0000
vt 0.4176 0.5976 0.0000
vt 0.4197 0.5976 0.0000
vt 0.4183 0.6149 0.0000
vt 0.4163 0.6146 0.0000
vt 0.3414 0.3949 0.0000
vt 0.3532 0.3949 0.0000
vt 0.3532 0.4701 0.0000
vt 0.3532 0.4951 0.0000
vt 0.3532 0.6719 0.0000
vt 0.0100 0.4701 0.0000
vt 0.0100 0.3949 0.0000
vt 0.3871 0.3949 0.0000
vt 0.3871 0.4701 0.0000
vt 0.3871 0.4951 0.0000
vt 0.3871 0.6719 0.0000
vt 0.0100 0.6969 0.0000
vt 0.0100 0.6719 0.0000
vt 0.0100 0.4951 0.0000
vt 0.7185 0.6971 0.0000
vt 0.7368 0.6971 0.0000
vt 0.7368 0.7358 0.0000
vt 0.7185 0.7358 0.0000
vt 0.3044 0.3407 0.0000
vt 0.3871 0.3871 0.0000
vt 0.0100 0.3871 0.0000
vt 0.0927 0.3407 0.0000
vt 0.3532 0.3120 0.0000
vt 0.3532 0.3267 0.0000
vt 0.3407 0.3044 0.0000
vt 0.3532 0.2869 0.0000
vt 0.3532 0.1102 0.0000
vt 0.3532 0.0851 0.0000
vt 0.3532 0.0100 0.0000
vt 0.3414 0.0100 0.0000
vt 0.0100 0.3120 0.0000
vt 0.0439 0.3120 0.0000
vt 0.0439 0.3267 0.0000
vt 0.6684 0.5188 0.0000
vt 0.6684 0.5451 0.0000
vt 0.4592 0.5451 0.0000
vt 0.4592 0.5188 0.0000
vt 0.6881 0.8278 0.0000
vt 0.6881 0.8541 0.0000
vt 0.4023 0.8541 0.0000
vt 0.3953 0.8278 0.0000
vt 0.3953 0.7935 0.0000
vt 0.4023 0.7672 0.0000
vt 0.6881 0.7672 0.0000
vt 0.6881 0.7935 0.0000
vt 0.7057 0.9461 0.0000
vt 0.7072 0.9447 0.0000
vt 0.9871 0.9447 0.0000
vt 0.7057 0.9725 0.0000
vt 0.9885 0.9725 0.0000
vt 0.9885 0.9461 0.0000
vt 0.3368 0.3247 0.0000
vt 0.3247 0.3368 0.0000
vt 0.0724 0.3368 0.0000
vt 0.0603 0.3247 0.0000
vt 0.7085 0.7672 0.0000
vt 0.7085 0.7935 0.0000
vt 0.7085 0.8278 0.0000
vt 0.7085 0.8541 0.0000
vt 0.0564 0.3044 0.0000
vt 0.7208 0.7672 0.0000
vt 0.7208 0.7935 0.0000
vt 0.6888 0.5188 0.0000
vt 0.6888 0.5451 0.0000
vt 0.7208 0.8278 0.0000
vt 0.7208 0.8541 0.0000
vt 0.4387 0.5451 0.0000
vt 0.4387 0.5188 0.0000
vt 0.3949 0.6971 0.0000
vt 0.6926 0.6971 0.0000
vt 0.6926 0.7358 0.0000
vt 0.3949 0.7358 0.0000
vt 0.4636 0.6273 0.0000
vt 0.4636 0.5886 0.0000
vt 0.3076 0.8186 0.0000
vt 0.3076 0.7799 0.0000
vt 0.7279 0.4050 0.0000
vt 0.7426 0.4036 0.0000
vt 0.7426 0.6156 0.0000
vt 0.7279 0.6142 0.0000
vt 0.7368 0.6416 0.0000
vt 0.7238 0.6346 0.0000
vt 0.7185 0.6599 0.0000
vt 0.7116 0.6469 0.0000
vt 0.6926 0.6657 0.0000
vt 0.6911 0.6510 0.0000
vt 0.3949 0.6614 0.0000
vt 0.4053 0.6510 0.0000
vt 0.3949 0.3578 0.0000
vt 0.4053 0.3682 0.0000
vt 0.6926 0.3535 0.0000
vt 0.6911 0.3682 0.0000
vt 0.7185 0.3593 0.0000
vt 0.7116 0.3723 0.0000
vt 0.7368 0.3776 0.0000
vt 0.7238 0.3846 0.0000
vt 0.9900 0.9447 0.0000
vt 0.7042 0.9447 0.0000
vt 0.6893 0.7949 0.0000
vt 0.3949 0.7949 0.0000
vt 0.4579 0.5173 0.0000
vt 0.6696 0.5173 0.0000
vt 0.3949 0.8263 0.0000
vt 0.6893 0.8263 0.0000
vt 0.7097 0.8263 0.0000
vt 0.6900 0.5173 0.0000
vt 0.4376 0.5173 0.0000
vt 0.4163 0.6397 0.0000
vt 0.4176 0.6227 0.0000
vt 0.4197 0.6228 0.0000
vt 0.4183 0.6401 0.0000
vt 0.7097 0.7949 0.0000
vt 0.4190 0.5726 0.0000
vt 0.4183 0.5897 0.0000
vt 0.4163 0.5897 0.0000
vt 0.4169 0.5724 0.0000
vt 0.0439 0.0100 0.0000
vt 0.0557 0.0100 0.0000
vt 0.0439 0.0851 0.0000
vt 0.0439 0.1102 0.0000
vt 0.0439 0.2869 0.0000
vt 0.3871 0.0851 0.0000
vt 0.3871 0.0100 0.0000
vt 0.0100 0.0851 0.0000
vt 0.0100 0.0100 0.0000
vt 0.0100 0.1102 0.0000
vt 0.0100 0.2869 0.0000
vt 0.3871 0.3120 0.0000
vt 0.3871 0.2869 0.0000
vt 0.3871 0.1102 0.0000
vt 0.0100 0.8887 0.0000
vt 0.0100 0.8500 0.0000
vt 0.3136 0.8500 0.0000
vt 0.3136 0.8887 0.0000
vt 0.0100 0.8186 0.0000
vt 0.0100 0.7799 0.0000
vt 0.4376 0.6273 0.0000
vt 0.4376 0.5886 0.0000
# 236 texture coords

g Plane001
usemtl wire_115115115
s off
f 1/1/1 2/2/1 3/3/1 
f 3/3/1 4/4/1 1/1/1 
f 5/5/1 6/6/1 7/7/1 
f 5/5/2 7/7/2 8/8/2 
f 5/5/3 8/8/3 9/9/3 
f 5/5/1 9/9/1 10/10/1 
f 5/5/1 10/10/1 11/11/1 
f 12/12/1 5/5/1 11/11/1 
f 13/13/1 3/3/1 14/14/1 
f 14/14/1 15/15/1 13/13/1 
s 1
f 16/16/4 17/17/5 18/18/5 
f 18/18/5 19/19/4 16/16/4 
f 20/20/6 21/21/7 22/22/7 
f 22/22/7 23/23/6 20/20/6 
f 24/24/8 25/25/9 26/26/9 
f 26/26/9 27/27/8 24/24/8 
s off
f 22/28/10 21/29/10 28/30/10 
f 28/30/11 29/31/11 24/32/11 
f 28/30/11 24/32/11 27/33/11 
f 22/28/11 28/30/11 27/33/11 
f 30/34/1 31/35/1 4/4/1 
f 32/36/1 33/37/1 3/3/1 
s 1
f 34/38/12 26/26/9 25/25/9 
f 25/25/9 35/39/12 34/38/12 
f 36/40/13 20/20/6 23/23/6 
f 23/23/6 37/41/13 36/40/13 
s off
f 30/34/1 4/4/1 6/6/1 
f 6/6/1 5/5/1 30/34/1 
f 31/35/1 1/1/1 4/4/1 
f 3/3/1 2/2/1 32/36/1 
f 33/37/1 38/42/1 14/14/1 
f 14/14/1 3/3/1 33/37/1 
s 1
f 39/43/14 34/38/12 35/39/12 
f 35/39/12 40/44/14 39/43/14 
f 19/19/4 39/45/14 40/46/14 
f 40/46/14 16/16/4 19/19/4 
f 41/47/15 36/40/13 37/41/13 
f 37/41/13 42/48/15 41/47/15 
f 17/17/5 41/49/15 42/50/15 
f 42/50/15 18/18/5 17/17/5 
s 4
f 43/51/16 44/52/16 45/53/17 
f 45/53/17 46/54/18 43/51/16 
f 47/55/19 48/56/19 49/57/20 
f 49/57/20 50/58/20 47/55/19 
s off
f 19/59/21 18/60/21 51/61/21 
f 51/61/22 43/62/22 19/59/22 
f 18/60/21 42/63/21 50/64/21 
f 50/64/21 51/61/21 18/60/21 
f 42/63/23 37/65/23 47/66/23 
f 47/66/23 50/64/23 42/63/23 
f 37/65/21 23/67/21 52/68/21 
f 52/68/21 47/66/21 37/65/21 
f 23/67/24 22/69/24 53/70/24 
f 53/70/21 52/68/21 23/67/21 
f 22/69/21 27/71/21 54/72/21 
f 54/72/22 53/70/22 22/69/22 
f 27/71/24 26/73/24 55/74/24 
f 55/74/21 54/72/21 27/71/21 
f 26/73/24 34/75/24 56/76/24 
f 56/76/24 55/74/24 26/73/24 
f 34/75/23 39/77/23 46/78/23 
f 46/78/23 56/76/23 34/75/23 
f 39/77/24 19/59/24 43/62/24 
f 43/62/24 46/78/24 39/77/24 
f 28/30/11 21/29/11 12/79/11 
f 57/80/11 24/32/11 29/31/11 
s 8
f 38/81/25 25/25/26 24/24/27 
f 24/24/27 57/82/28 38/81/25 
f 1/83/29 17/17/30 16/16/31 
f 16/16/31 2/84/32 1/83/29 
f 12/85/33 21/21/34 20/20/35 
f 20/20/35 5/86/36 12/85/33 
f 5/86/36 20/20/35 36/40/37 
f 36/40/37 30/87/38 5/86/36 
f 2/84/32 16/16/31 40/46/39 
f 40/46/39 32/88/40 2/84/32 
f 31/89/41 41/49/42 17/17/30 
f 17/17/30 1/83/29 31/89/41 
f 30/90/38 36/91/37 41/92/42 
f 41/92/42 31/93/41 30/90/38 
f 33/94/43 35/39/44 25/25/26 
f 25/25/26 38/81/25 33/94/43 
f 32/95/40 40/96/39 35/97/44 
f 35/97/44 33/98/43 32/95/40 
s off
f 38/42/1 57/99/1 58/100/1 
f 38/42/1 58/100/1 59/101/1 
f 38/42/1 59/101/1 60/102/1 
f 38/42/1 60/102/1 61/103/1 
f 38/42/45 61/103/45 15/15/45 
f 14/14/1 38/42/1 15/15/1 
f 62/104/1 63/105/1 11/11/1 
f 11/11/1 10/10/1 62/104/1 
f 59/101/1 58/100/1 64/106/1 
f 64/106/1 65/107/1 59/101/1 
f 59/101/46 65/107/46 66/108/46 
f 66/108/47 60/102/47 59/101/47 
f 60/102/47 66/108/47 67/109/47 
f 67/109/47 61/103/47 60/102/47 
f 61/103/48 67/109/48 13/13/48 
f 13/13/45 15/15/45 61/103/45 
f 6/6/1 4/4/1 68/110/1 
f 68/110/1 7/7/1 6/6/1 
f 8/8/45 7/7/45 68/110/45 
f 68/110/49 69/111/49 8/8/49 
f 9/9/50 8/8/50 69/111/50 
f 69/111/50 70/112/50 9/9/50 
f 10/10/50 9/9/50 70/112/50 
f 70/112/46 62/104/46 10/10/46 
s 4
f 56/113/51 46/114/18 45/115/17 
f 45/115/17 71/116/52 56/113/51 
s off
f 72/117/23 73/118/23 74/119/23 
f 74/119/23 75/120/23 72/117/23 
f 76/121/23 77/122/23 78/123/23 
f 79/124/23 76/121/23 78/123/23 
f 80/125/23 79/124/23 78/123/23 
f 81/126/23 80/125/23 78/123/23 
f 82/127/23 81/126/23 78/123/23 
f 83/128/23 82/127/23 78/123/23 
f 84/129/23 85/130/23 86/131/23 
f 86/131/23 74/119/23 84/129/23 
s 2
f 87/132/4 88/133/4 89/134/5 
f 89/134/5 90/135/5 87/132/4 
f 91/136/6 92/137/6 93/138/7 
f 93/138/7 94/139/7 91/136/6 
f 95/140/8 96/141/8 97/142/9 
f 97/142/9 98/143/9 95/140/8 
s off
f 95/144/53 99/145/53 100/146/53 
f 96/147/53 95/144/53 100/146/53 
f 93/148/53 96/147/53 100/146/53 
f 93/148/54 100/146/54 94/149/54 
f 101/150/23 73/118/23 102/151/23 
f 103/152/23 74/119/23 104/153/23 
s 2
f 105/154/12 106/155/12 98/143/9 
f 98/143/9 97/142/9 105/154/12 
f 107/156/13 108/157/13 92/137/6 
f 92/137/6 91/136/6 107/156/13 
s off
f 101/150/23 78/123/23 77/122/23 
f 77/122/23 73/118/23 101/150/23 
f 102/151/23 73/118/23 72/117/23 
f 74/119/23 103/152/23 75/120/23 
f 104/153/23 74/119/23 86/131/23 
f 86/131/23 109/158/23 104/153/23 
s 2
f 110/159/14 111/160/14 106/155/12 
f 106/155/12 105/154/12 110/159/14 
f 88/133/4 87/132/4 111/161/14 
f 111/161/14 110/162/14 88/133/4 
f 112/163/15 113/164/15 108/157/13 
f 108/157/13 107/156/13 112/163/15 
f 90/135/5 89/134/5 113/165/15 
f 113/165/15 112/166/15 90/135/5 
s 4
f 54/167/55 55/168/56 114/169/56 
f 114/169/56 115/170/55 54/167/55 
f 43/51/16 51/171/57 116/172/57 
f 116/172/57 44/52/16 43/51/16 
f 47/55/19 52/173/58 117/174/58 
f 117/174/58 48/56/19 47/55/19 
s off
f 88/175/3 44/176/3 116/177/3 
f 116/177/2 89/178/2 88/175/2 
f 89/178/2 116/177/2 49/179/2 
f 49/179/2 113/180/2 89/178/2 
f 113/180/1 49/179/1 48/181/1 
f 48/181/1 108/182/1 113/180/1 
f 108/182/2 48/181/2 117/183/2 
f 117/183/2 92/184/2 108/182/2 
f 92/184/2 117/183/2 118/185/2 
f 118/185/45 93/186/45 92/184/45 
f 93/186/3 118/185/3 115/187/3 
f 115/187/2 96/188/2 93/186/2 
f 96/188/2 115/187/2 114/189/2 
f 114/189/45 97/190/45 96/188/45 
f 97/190/1 114/189/1 71/191/1 
f 71/191/1 105/192/1 97/190/1 
f 105/192/1 71/191/1 45/193/1 
f 45/193/1 110/194/1 105/192/1 
f 110/194/1 45/193/1 44/176/1 
f 44/176/1 88/175/1 110/194/1 
f 100/146/53 83/195/53 94/149/53 
f 119/196/53 99/145/53 95/144/53 
s 16
f 109/197/59 119/198/60 95/140/61 
f 95/140/61 98/143/62 109/197/59 
f 72/199/63 75/200/64 87/132/65 
f 87/132/65 90/135/66 72/199/63 
f 83/201/67 78/202/68 91/136/69 
f 91/136/69 94/139/70 83/201/67 
f 78/202/68 101/203/71 107/156/72 
f 107/156/72 91/136/69 78/202/68 
f 75/200/64 103/204/73 111/161/74 
f 111/161/74 87/132/65 75/200/64 
f 102/205/75 72/199/63 90/135/66 
f 90/135/66 112/166/76 102/205/75 
f 101/206/71 102/207/75 112/208/76 
f 112/208/76 107/209/72 101/206/71 
f 104/210/77 109/197/59 98/143/62 
f 98/143/62 106/155/78 104/210/77 
f 103/211/73 104/212/77 106/213/78 
f 106/213/78 111/214/74 103/211/73 
s off
f 120/215/23 119/216/23 109/158/23 
f 121/217/23 120/215/23 109/158/23 
f 122/218/23 121/217/23 109/158/23 
f 123/219/23 122/218/23 109/158/23 
f 85/130/23 123/219/23 109/158/23 
f 86/131/23 85/130/23 109/158/23 
f 124/220/23 81/126/23 82/127/23 
f 82/127/23 125/221/23 124/220/23 
f 121/217/23 126/222/23 127/223/23 
f 127/223/23 120/215/23 121/217/23 
f 121/217/79 122/218/79 128/224/79 
f 128/224/80 126/222/80 121/217/80 
f 122/218/79 123/219/79 129/225/79 
f 129/225/79 128/224/79 122/218/79 
f 123/219/23 85/130/23 84/129/23 
f 84/129/81 129/225/81 123/219/81 
f 77/122/23 76/121/23 130/226/23 
f 130/226/23 73/118/23 77/122/23 
f 79/124/82 131/227/82 130/226/82 
f 130/226/23 76/121/23 79/124/23 
f 80/125/83 132/228/83 131/227/83 
f 131/227/83 79/124/83 80/125/83 
f 81/126/80 124/220/80 132/228/80 
f 132/228/83 80/125/83 81/126/83 
s 4
f 54/229/55 115/230/55 118/231/84 
f 118/231/84 53/232/84 54/229/55 
f 52/173/58 53/233/84 118/234/84 
f 118/234/84 117/174/58 52/173/58 
f 56/113/51 71/116/52 114/169/56 
f 114/169/56 55/168/56 56/113/51 
f 51/171/57 50/235/20 49/236/20 
f 49/236/20 116/172/57 51/171/57 
# 228 faces

