# 3ds Max Wavefront OBJ Exporter v0.97b - (c)2007 guruware
# File Created: 04.02.2014 00:53:19

mtllib WallCornerIn01_LP.mtl

#
# object Plane001
#

v  -249.0000 125.0171 5.6899
v  -249.0000 109.0132 19.8110
v  -244.0000 105.2640 23.1191
v  -12.0000 128.7663 2.3818
v  -12.0000 105.2640 23.1191
v  -7.0000 109.0132 19.8110
v  -7.0000 125.0171 5.6899
v  -244.0000 128.7663 2.3818
v  -160.6667 401.5000 22.5000
v  -160.6667 376.0000 0.0000
v  -95.3333 376.0000 0.0000
v  -160.6667 410.0000 30.0000
v  -95.3333 401.5000 22.5000
v  -95.3333 410.0000 30.0000
v  -244.0000 85.0000 33.0000
v  -244.0000 17.0000 33.0000
v  -239.0000 12.0000 33.0000
v  -17.0000 90.0000 33.0000
v  -17.0000 12.0000 33.0000
v  -12.0000 17.0000 33.0000
v  -12.0000 85.0000 33.0000
v  -239.0000 90.0000 33.0000
v  0.0000 512.0000 30.0000
v  -256.0000 512.0000 30.0000
v  -256.0000 410.0000 30.0000
v  -180.6667 410.0000 30.0000
v  -75.3333 410.0000 30.0000
v  0.0000 410.0000 30.0000
v  -280.3100 125.0171 279.0000
v  -266.1889 109.0132 279.0000
v  -262.8808 105.2640 274.0000
v  -283.6182 128.7663 42.0000
v  -262.8809 105.2640 42.0000
v  -266.1890 109.0132 37.0000
v  -280.3101 125.0171 37.0000
v  -283.6181 128.7663 274.0000
v  -263.5000 401.5000 190.6667
v  -285.9999 376.0000 190.6667
v  -286.0000 376.0000 125.3333
v  -256.0000 410.0000 190.6667
v  -263.5000 401.5000 125.3333
v  -256.0000 410.0000 125.3333
v  -253.0000 85.0000 274.0000
v  -253.0000 17.0000 273.9999
v  -253.0000 12.0000 268.9999
v  -253.0000 90.0000 47.0000
v  -253.0000 12.0000 47.0000
v  -253.0000 17.0000 42.0000
v  -253.0000 85.0000 42.0000
v  -253.0000 90.0000 269.0000
v  -256.0000 511.9999 286.0000
v  -256.0000 410.0000 286.0000
v  -256.0000 410.0000 210.6667
v  -256.0000 410.0000 105.3333
v  -286.0000 136.0000 30.0000
v  -256.0000 102.0000 30.0000
v  -256.0000 136.0000 -0.0000
v  -286.0000 376.0000 30.0000
v  -256.0000 376.0000 0.0000
v  0.0000 102.0000 30.0000
v  -6.4645 95.5355 30.0000
v  -10.0000 87.0000 30.0000
v  0.0000 0.0000 30.0000
v  -10.0000 15.0000 30.0000
v  -6.4645 6.4645 30.0000
v  -249.5355 95.5355 30.0000
v  -241.0000 92.0000 30.0000
v  -15.0000 92.0000 30.0000
v  -256.0000 0.0000 30.0000
v  -249.5355 6.4645 30.0000
v  -246.0000 15.0000 30.0000
v  -246.0000 87.0000 30.0000
v  -15.0000 10.0000 30.0000
v  -241.0000 10.0000 30.0000
v  -256.0000 95.5355 36.4645
v  -256.0000 87.0000 40.0000
v  -256.0000 15.0000 40.0000
v  -256.0000 6.4645 36.4645
v  -256.0000 102.0000 286.0000
v  -256.0000 95.5355 279.5355
v  -256.0000 92.0000 271.0000
v  -256.0000 92.0000 45.0000
v  -256.0000 0.0000 285.9999
v  -256.0000 6.4645 279.5355
v  -256.0000 15.0000 275.9999
v  -256.0000 87.0000 276.0000
v  -256.0000 10.0000 45.0000
v  -256.0000 10.0000 270.9999
v  -254.5355 103.0981 29.0311
v  -251.0000 109.4984 23.3838
v  -251.0000 128.5016 6.6162
v  -254.5355 134.9019 0.9689
v  -1.4645 103.0981 29.0311
v  -10.0000 105.7492 26.6919
v  -246.0000 105.7492 26.6919
v  0.0000 136.0000 -0.0000
v  -1.4645 134.9019 0.9689
v  -5.0000 128.5016 6.6162
v  -5.0000 109.4984 23.3838
v  -75.3333 136.0000 -0.0000
v  -95.3333 136.0000 -0.0000
v  -246.0000 132.2508 3.3081
v  -160.6667 136.0000 -0.0000
v  -180.6667 136.0000 -0.0000
v  -10.0000 132.2508 3.3081
v  -256.9689 103.0981 284.5355
v  -262.6162 109.4984 281.0000
v  -286.0000 136.0000 286.0000
v  -279.3838 128.5016 281.0000
v  -285.0310 134.9019 284.5355
v  -256.9689 103.0981 31.4645
v  -259.3081 105.7492 40.0000
v  -259.3081 105.7492 276.0000
v  -285.0311 134.9019 31.4645
v  -279.3838 128.5016 35.0000
v  -262.6162 109.4984 35.0000
v  -286.0000 136.0000 105.3333
v  -286.0000 136.0000 125.3333
v  -282.6919 132.2508 276.0000
v  -286.0000 136.0000 190.6667
v  -286.0000 136.0000 210.6667
v  -282.6919 132.2508 40.0000
v  -286.0000 148.0000 125.3333
v  -286.0000 148.0000 190.6667
v  -95.3333 148.0000 -0.0000
v  -160.6667 148.0000 -0.0000
v  -180.6667 376.0000 0.0000
v  -180.6667 401.5000 22.5000
v  0.0000 376.0000 0.0000
v  -75.3333 401.5000 22.5000
v  -75.3333 376.0000 0.0000
v  -285.9999 376.0000 286.0000
v  -285.9999 376.0000 210.6667
v  -263.5000 401.5000 210.6667
v  -263.5000 401.5000 105.3333
v  -286.0000 376.0000 105.3333
v  -286.0000 148.0000 105.3333
v  -286.0000 148.0000 210.6667
v  -75.3333 148.0000 -0.0000
v  -180.6667 148.0000 -0.0000
v  -180.6667 395.6537 30.0000
v  -160.6667 395.6537 30.0000
v  -75.3333 372.4633 9.3537
v  -75.3333 395.6537 30.0000
v  -95.3333 395.6537 30.0000
v  -95.3333 372.4633 9.3537
v  -256.0000 395.6536 210.6667
v  -256.0000 395.6537 190.6667
v  -276.6463 372.4633 105.3333
v  -256.0000 395.6537 105.3333
v  -256.0000 395.6537 125.3333
v  -276.6463 372.4633 125.3333
v  -276.0323 147.8232 105.3333
v  -276.0323 147.8232 125.3333
v  -276.6462 372.4633 210.6667
v  -276.0323 147.8232 210.6667
v  -276.0323 147.8232 190.6667
v  -276.6462 372.4633 190.6667
v  -75.3333 147.8232 9.9677
v  -95.3333 147.8232 9.9677
v  -180.6667 372.4633 9.3537
v  -180.6667 147.8232 9.9677
v  -160.6667 147.8232 9.9677
v  -160.6667 372.4633 9.3537
# 164 vertices

vn 0.0000 0.6616 0.7498
vn -0.0000 0.6616 0.7498
vn 0.0000 -0.6616 0.7498
vn 0.0000 -0.0000 1.0000
vn -0.0000 -0.0000 1.0000
vn 1.0000 0.0000 -0.0000
vn 0.7498 0.6616 -0.0000
vn 0.7498 -0.6616 -0.0000
vn 1.0000 -0.0000 -0.0000
vn 1.0000 -0.0000 0.0000
vn 0.5999 0.5293 0.5999
vn 0.5999 -0.5293 0.5999
vn 0.8321 -0.0000 0.5547
vn 0.0000 0.8321 0.5547
vn -0.8321 -0.0000 0.5547
vn 0.0000 -0.8321 0.5547
vn 0.5547 -0.0000 -0.8321
vn 0.5547 0.8321 -0.0000
vn 0.5547 -0.0000 0.8321
vn 0.5547 -0.8321 -0.0000
vn 0.7498 0.6616 0.0000
vn 0.8321 0.3670 0.4159
vn 0.0000 0.9909 -0.1346
vn -0.8321 0.3670 0.4159
vn 0.0000 -0.2569 0.9664
vn 0.4159 0.3670 -0.8321
vn -0.1346 0.9909 -0.0000
vn 0.4159 0.3670 0.8321
vn 0.9664 -0.2569 -0.0000
vn 0.5145 -0.5145 0.6860
vn 0.5145 0.5145 0.6860
vn -0.5145 0.5145 0.6860
vn -0.5145 -0.5145 0.6860
vn 0.6860 -0.5145 -0.5145
vn 0.6860 0.5145 -0.5145
vn 0.6860 0.5145 0.5145
vn 0.6860 -0.5145 0.5145
vn 0.5145 0.0681 0.8548
vn 0.5145 0.8397 0.1740
vn -0.5145 0.8397 0.1740
vn -0.5145 0.0681 0.8548
vn 0.8548 0.0681 -0.5145
vn 0.1740 0.8397 -0.5145
vn 0.1740 0.8397 0.5145
vn 0.8548 0.0681 0.5145
vn 0.7071 -0.0000 0.7071
vn 0.7498 -0.6616 0.0000
vn -0.0000 0.0000 1.0000
vn -0.0000 -0.6650 0.7469
vn 0.7469 -0.6650 -0.0000
vn 0.7646 -0.6446 -0.0000
vn 1.0000 0.0027 -0.0000
vn -0.0000 -0.6446 0.7645
vn 0.0000 0.0027 1.0000
vn -1.0000 0.0000 -0.0000
vn -1.0000 -0.0000 -0.0000
vn -0.0000 -0.0000 -1.0000
vn 0.0000 0.0000 -1.0000
vn 0.0000 -0.0000 -1.0000
vn 0.7646 -0.6446 0.0000
vn -0.0000 0.0000 -1.0000
vn 1.0000 0.0027 0.0000
vn 1.0000 0.0000 0.0000
vn 0.0000 0.0000 1.0000
vn -1.0000 0.0000 0.0000
# 65 vertex normals

vt 0.7134 0.5072 0.0000
vt 0.7134 0.5278 0.0000
vt 0.7070 0.5326 0.0000
vt 0.4089 0.5024 0.0000
vt 0.4089 0.5326 0.0000
vt 0.4025 0.5278 0.0000
vt 0.4025 0.5072 0.0000
vt 0.7070 0.5024 0.0000
vt 0.5999 0.1520 0.0000
vt 0.5999 0.1848 0.0000
vt 0.5160 0.1848 0.0000
vt 0.5999 0.1411 0.0000
vt 0.5160 0.1520 0.0000
vt 0.5160 0.1411 0.0000
vt 0.3999 0.6919 0.0000
vt 0.4873 0.6919 0.0000
vt 0.4937 0.6983 0.0000
vt 0.3935 0.9836 0.0000
vt 0.4937 0.9836 0.0000
vt 0.4873 0.9900 0.0000
vt 0.3999 0.9900 0.0000
vt 0.3935 0.6983 0.0000
vt 0.3935 0.0100 0.0000
vt 0.7224 0.0100 0.0000
vt 0.7224 0.1411 0.0000
vt 0.6256 0.1411 0.0000
vt 0.4903 0.1411 0.0000
vt 0.3935 0.1411 0.0000
vt 0.0190 0.1706 0.0000
vt 0.0190 0.1501 0.0000
vt 0.0254 0.1453 0.0000
vt 0.3235 0.1755 0.0000
vt 0.3235 0.1453 0.0000
vt 0.3299 0.1501 0.0000
vt 0.3299 0.1706 0.0000
vt 0.0254 0.1755 0.0000
vt 0.1325 0.5259 0.0000
vt 0.1325 0.4931 0.0000
vt 0.2164 0.4931 0.0000
vt 0.1325 0.5368 0.0000
vt 0.2164 0.5259 0.0000
vt 0.2164 0.5368 0.0000
vt 0.0164 0.6839 0.0000
vt 0.1038 0.6839 0.0000
vt 0.1102 0.6903 0.0000
vt 0.0100 0.9756 0.0000
vt 0.1102 0.9756 0.0000
vt 0.1038 0.9820 0.0000
vt 0.0164 0.9820 0.0000
vt 0.0100 0.6903 0.0000
vt 0.3389 0.6679 0.0000
vt 0.0100 0.6679 0.0000
vt 0.0100 0.5368 0.0000
vt 0.1068 0.5368 0.0000
vt 0.2421 0.5368 0.0000
vt 0.3389 0.5368 0.0000
vt 0.6915 0.6403 0.0000
vt 0.6403 0.6124 0.0000
vt 0.6921 0.5858 0.0000
vt 0.6323 0.6412 0.0000
vt 0.5841 0.6157 0.0000
vt 0.6323 0.5830 0.0000
vt 0.3935 0.5368 0.0000
vt 0.4018 0.5451 0.0000
vt 0.4063 0.5561 0.0000
vt 0.3935 0.6679 0.0000
vt 0.4063 0.6486 0.0000
vt 0.4018 0.6596 0.0000
vt 0.7224 0.5368 0.0000
vt 0.7141 0.5451 0.0000
vt 0.7032 0.5497 0.0000
vt 0.4128 0.5497 0.0000
vt 0.7224 0.6679 0.0000
vt 0.7141 0.6596 0.0000
vt 0.7096 0.6486 0.0000
vt 0.7096 0.5561 0.0000
vt 0.4128 0.6550 0.0000
vt 0.7032 0.6550 0.0000
vt 0.3389 0.1411 0.0000
vt 0.3306 0.1328 0.0000
vt 0.3261 0.1218 0.0000
vt 0.3389 0.0100 0.0000
vt 0.3261 0.0293 0.0000
vt 0.3306 0.0183 0.0000
vt 0.0100 0.1411 0.0000
vt 0.0183 0.1328 0.0000
vt 0.0293 0.1282 0.0000
vt 0.3197 0.1282 0.0000
vt 0.0100 0.0100 0.0000
vt 0.0183 0.0183 0.0000
vt 0.0228 0.0293 0.0000
vt 0.0228 0.1218 0.0000
vt 0.3197 0.0228 0.0000
vt 0.0293 0.0228 0.0000
vt 0.3174 0.0471 0.0000
vt 0.2249 0.0471 0.0000
vt 0.2275 0.0433 0.0000
vt 0.3148 0.0433 0.0000
vt 0.7478 0.7406 0.0000
vt 0.7478 0.4502 0.0000
vt 0.7517 0.4528 0.0000
vt 0.7517 0.7381 0.0000
vt 0.3775 0.5028 0.0000
vt 0.3775 0.5953 0.0000
vt 0.3736 0.5927 0.0000
vt 0.3736 0.5053 0.0000
vt 0.7478 0.3633 0.0000
vt 0.7478 0.0729 0.0000
vt 0.7517 0.0755 0.0000
vt 0.7517 0.3607 0.0000
vt 0.5761 0.6294 0.0000
vt 0.4836 0.6294 0.0000
vt 0.4862 0.6255 0.0000
vt 0.5735 0.6255 0.0000
vt 0.8417 0.6697 0.0000
vt 0.8417 0.3793 0.0000
vt 0.8455 0.3819 0.0000
vt 0.8455 0.6671 0.0000
vt 0.5761 0.6412 0.0000
vt 0.4836 0.6412 0.0000
vt 0.4862 0.6374 0.0000
vt 0.5735 0.6374 0.0000
vt 0.8455 0.0100 0.0000
vt 0.8455 0.3004 0.0000
vt 0.8417 0.2978 0.0000
vt 0.8417 0.0126 0.0000
vt 0.7206 0.5354 0.0000
vt 0.7160 0.5272 0.0000
vt 0.7224 0.4931 0.0000
vt 0.7160 0.5028 0.0000
vt 0.7206 0.4945 0.0000
vt 0.3954 0.5354 0.0000
vt 0.4063 0.5320 0.0000
vt 0.7096 0.5320 0.0000
vt 0.3935 0.4931 0.0000
vt 0.3954 0.4945 0.0000
vt 0.3999 0.5028 0.0000
vt 0.3999 0.5272 0.0000
vt 0.4903 0.4931 0.0000
vt 0.5160 0.4931 0.0000
vt 0.7096 0.4980 0.0000
vt 0.5999 0.4931 0.0000
vt 0.6256 0.4931 0.0000
vt 0.4063 0.4980 0.0000
vt 0.0119 0.1425 0.0000
vt 0.0164 0.1507 0.0000
vt 0.0100 0.1848 0.0000
vt 0.0164 0.1751 0.0000
vt 0.0119 0.1833 0.0000
vt 0.3371 0.1425 0.0000
vt 0.3261 0.1459 0.0000
vt 0.0228 0.1459 0.0000
vt 0.3389 0.1848 0.0000
vt 0.3371 0.1833 0.0000
vt 0.3325 0.1751 0.0000
vt 0.3325 0.1507 0.0000
vt 0.2421 0.1848 0.0000
vt 0.2164 0.1848 0.0000
vt 0.0228 0.1799 0.0000
vt 0.1325 0.1848 0.0000
vt 0.1068 0.1848 0.0000
vt 0.3261 0.1799 0.0000
vt 0.6783 0.5871 0.0000
vt 0.6494 0.6020 0.0000
vt 0.6497 0.5969 0.0000
vt 0.6741 0.5844 0.0000
vt 0.9746 0.6977 0.0000
vt 0.9746 0.3944 0.0000
vt 0.9791 0.3970 0.0000
vt 0.9791 0.6951 0.0000
vt 0.6921 0.5764 0.0000
vt 0.6596 0.5753 0.0000
vt 0.6623 0.5715 0.0000
vt 0.6897 0.5724 0.0000
vt 0.6323 0.5750 0.0000
vt 0.5997 0.5748 0.0000
vt 0.6023 0.5710 0.0000
vt 0.6297 0.5711 0.0000
vt 0.9834 0.0164 0.0000
vt 0.9834 0.3197 0.0000
vt 0.9788 0.3171 0.0000
vt 0.9788 0.0190 0.0000
vt 0.6491 0.6231 0.0000
vt 0.6777 0.6386 0.0000
vt 0.6734 0.6412 0.0000
vt 0.6493 0.6281 0.0000
vt 0.3039 0.0605 0.0000
vt 0.2948 0.0605 0.0000
vt 0.2948 0.0552 0.0000
vt 0.3039 0.0552 0.0000
vt 0.3656 0.5081 0.0000
vt 0.3565 0.5081 0.0000
vt 0.3565 0.5028 0.0000
vt 0.3656 0.5028 0.0000
vt 0.3656 0.5214 0.0000
vt 0.3565 0.5214 0.0000
vt 0.3565 0.5161 0.0000
vt 0.3656 0.5161 0.0000
vt 0.3775 0.0464 0.0000
vt 0.3684 0.0464 0.0000
vt 0.3684 0.0411 0.0000
vt 0.3775 0.0411 0.0000
vt 0.6425 0.5705 0.0000
vt 0.6516 0.5711 0.0000
vt 0.6512 0.5764 0.0000
vt 0.6422 0.5758 0.0000
vt 0.3121 0.0644 0.0000
vt 0.3119 0.0553 0.0000
vt 0.3172 0.0552 0.0000
vt 0.3174 0.0642 0.0000
vt 0.3771 0.0159 0.0000
vt 0.3681 0.0153 0.0000
vt 0.3684 0.0100 0.0000
vt 0.3775 0.0106 0.0000
vt 0.3773 0.0239 0.0000
vt 0.3775 0.0330 0.0000
vt 0.3722 0.0331 0.0000
vt 0.3720 0.0240 0.0000
vt 0.9788 0.7041 0.0000
vt 0.9834 0.7015 0.0000
vt 0.9788 0.3880 0.0000
vt 0.9834 0.3906 0.0000
vt 0.9791 0.0100 0.0000
vt 0.9746 0.0126 0.0000
vt 0.9791 0.3261 0.0000
vt 0.9746 0.3235 0.0000
vt 0.2164 0.2002 0.0000
vt 0.1325 0.2002 0.0000
vt 0.3389 0.4931 0.0000
vt 0.3775 0.1848 0.0000
vt 0.3775 0.4931 0.0000
vt 0.5160 0.4777 0.0000
vt 0.5999 0.4777 0.0000
vt 0.7224 0.1848 0.0000
vt 0.6256 0.1848 0.0000
vt 0.6256 0.1520 0.0000
vt 0.3935 0.1848 0.0000
vt 0.4903 0.1520 0.0000
vt 0.4903 0.1848 0.0000
vt 0.0100 0.4931 0.0000
vt 0.1068 0.4931 0.0000
vt 0.1068 0.5259 0.0000
vt 0.2421 0.5259 0.0000
vt 0.2421 0.4931 0.0000
vt 0.2421 0.2002 0.0000
vt 0.1068 0.2002 0.0000
vt 0.4903 0.4777 0.0000
vt 0.6256 0.4777 0.0000
vt 0.6256 0.1595 0.0000
vt 0.5999 0.1595 0.0000
vt 0.4903 0.1893 0.0000
vt 0.4903 0.1595 0.0000
vt 0.5160 0.1595 0.0000
vt 0.5160 0.1893 0.0000
vt 0.1068 0.5184 0.0000
vt 0.1325 0.5184 0.0000
vt 0.2421 0.4886 0.0000
vt 0.2421 0.5184 0.0000
vt 0.2164 0.5184 0.0000
vt 0.2164 0.4886 0.0000
vt 0.2421 0.1999 0.0000
vt 0.2164 0.1999 0.0000
vt 0.1068 0.4886 0.0000
vt 0.1068 0.1999 0.0000
vt 0.1325 0.1999 0.0000
vt 0.1325 0.4886 0.0000
vt 0.4903 0.4779 0.0000
vt 0.5160 0.4779 0.0000
vt 0.6256 0.1893 0.0000
vt 0.6256 0.4779 0.0000
vt 0.5999 0.4779 0.0000
vt 0.5999 0.1893 0.0000
vt 0.8878 0.0216 0.0000
vt 0.8980 0.0284 0.0000
vt 0.8739 0.0601 0.0000
vt 0.8615 0.0565 0.0000
vt 0.7472 0.3873 0.0000
vt 0.7564 0.3986 0.0000
vt 0.7465 0.4057 0.0000
vt 0.7725 0.7252 0.0000
vt 0.7597 0.7250 0.0000
vt 0.7718 0.4366 0.0000
vt 0.7840 0.4325 0.0000
vt 0.8851 0.3640 0.0000
vt 0.8839 0.3486 0.0000
vt 0.8967 0.3479 0.0000
vt 0.7472 0.0100 0.0000
vt 0.7564 0.0213 0.0000
vt 0.7465 0.0284 0.0000
vt 0.7725 0.3479 0.0000
vt 0.7597 0.3476 0.0000
vt 0.7718 0.0592 0.0000
vt 0.7840 0.0552 0.0000
vt 0.8851 0.7420 0.0000
vt 0.8839 0.7266 0.0000
vt 0.8967 0.7259 0.0000
vt 0.8878 0.3996 0.0000
vt 0.8980 0.4064 0.0000
vt 0.8739 0.4381 0.0000
vt 0.8615 0.4345 0.0000
vt 0.9322 0.7304 0.0000
vt 0.9220 0.7236 0.0000
vt 0.9462 0.6919 0.0000
vt 0.9585 0.6955 0.0000
vt 0.8448 0.3633 0.0000
vt 0.8356 0.3520 0.0000
vt 0.8455 0.3449 0.0000
vt 0.8195 0.0254 0.0000
vt 0.8323 0.0257 0.0000
vt 0.8202 0.3141 0.0000
vt 0.8080 0.3181 0.0000
vt 0.9350 0.3880 0.0000
vt 0.9361 0.4034 0.0000
vt 0.9233 0.4041 0.0000
vt 0.8448 0.7326 0.0000
vt 0.8356 0.7213 0.0000
vt 0.8455 0.7142 0.0000
vt 0.8195 0.3947 0.0000
vt 0.8323 0.3950 0.0000
vt 0.8202 0.6834 0.0000
vt 0.8080 0.6875 0.0000
vt 0.9350 0.0100 0.0000
vt 0.9361 0.0254 0.0000
vt 0.9233 0.0261 0.0000
vt 0.9322 0.3524 0.0000
vt 0.9220 0.3456 0.0000
vt 0.9462 0.3139 0.0000
vt 0.9585 0.3175 0.0000
vt 0.8201 0.0100 0.0000
vt 0.8201 0.3793 0.0000
vt 0.7719 0.3633 0.0000
vt 0.7719 0.7406 0.0000
vt 0.9235 0.3640 0.0000
vt 0.8966 0.3880 0.0000
vt 0.8966 0.0100 0.0000
vt 0.9235 0.7420 0.0000
# 336 texture coords

g Plane001
usemtl wire_115115115
s off
f 1/1/1 2/2/1 3/3/1 4/4/1 
f 3/3/2 5/5/2 6/6/2 4/4/2 
f 6/6/1 7/7/1 4/4/1 
f 8/8/1 1/1/1 4/4/1 
f 9/9/3 10/10/3 11/11/3 12/12/3 
f 12/12/3 11/11/3 13/13/3 14/14/3 
f 15/15/4 16/16/4 17/17/4 18/18/4 
f 17/17/4 19/19/4 20/20/4 18/18/4 
f 20/20/5 21/21/5 18/18/5 
f 22/22/4 15/15/4 18/18/4 
f 23/23/4 24/24/4 25/25/4 12/12/4 
f 25/25/6 26/26/6 12/12/6 
f 12/12/4 14/14/4 27/27/4 23/23/4 
f 28/28/4 23/23/4 27/27/4 
f 29/29/7 30/30/7 31/31/7 32/32/7 
f 31/31/7 33/33/7 34/34/7 32/32/7 
f 34/34/7 35/35/7 32/32/7 
f 36/36/7 29/29/7 32/32/7 
f 37/37/8 38/38/8 39/39/8 40/40/8 
f 40/40/8 39/39/8 41/41/8 42/42/8 
f 43/43/9 44/44/9 45/45/9 46/46/9 
f 45/45/9 47/47/9 48/48/9 46/46/9 
f 48/48/10 49/49/10 46/46/10 
f 50/50/9 43/43/9 46/46/9 
f 24/51/9 51/52/9 52/53/9 40/40/9 
f 52/53/6 53/54/6 40/40/6 
f 40/40/9 42/42/9 54/55/9 24/51/9 
f 25/56/10 24/51/10 54/55/10 
f 55/57/11 56/58/11 56/58/11 57/59/11 
f 58/60/12 59/61/12 25/62/12 25/62/12 
f 60/63/4 61/64/4 62/65/4 63/66/4 
f 62/65/5 64/67/5 65/68/5 63/66/5 
f 56/69/4 66/70/4 67/71/4 60/63/4 
f 67/71/4 68/72/4 61/64/4 60/63/4 
f 69/73/4 70/74/4 71/75/4 56/69/4 
f 71/75/5 72/76/5 66/70/5 56/69/5 
f 63/66/4 65/68/4 73/77/4 69/73/4 
f 73/77/4 74/78/4 70/74/4 69/73/4 
f 56/79/9 75/80/9 76/81/9 69/82/9 
f 76/81/10 77/83/10 78/84/10 69/82/10 
f 79/85/6 80/86/6 81/87/6 56/79/6 
f 81/87/9 82/88/9 75/80/9 56/79/9 
f 83/89/9 84/90/9 85/91/9 79/85/9 
f 85/91/10 86/92/10 80/86/10 79/85/10 
f 69/82/6 78/84/6 87/93/6 83/89/6 
f 87/93/9 88/94/9 84/90/9 83/89/9 
f 64/95/13 62/96/13 21/97/13 20/98/13 
f 68/99/14 67/100/14 22/101/14 18/102/14 
f 72/103/15 71/104/15 16/105/15 15/106/15 
f 74/107/16 73/108/16 19/109/16 17/110/16 
f 77/111/17 76/112/17 49/113/17 48/114/17 
f 82/115/18 81/116/18 50/117/18 46/118/18 
f 86/119/19 85/120/19 44/121/19 43/122/19 
f 88/123/20 87/124/20 47/125/20 45/126/20 
f 56/69/2 89/127/2 90/128/2 57/129/2 
f 90/128/1 91/130/1 92/131/1 57/129/1 
f 60/63/2 93/132/2 94/133/2 56/69/2 
f 94/133/1 95/134/1 89/127/1 56/69/1 
f 96/135/2 97/136/2 98/137/2 60/63/2 
f 98/137/1 99/138/1 93/132/1 60/63/1 
f 96/135/1 100/139/1 101/140/1 102/141/1 
f 101/140/1 103/142/1 104/143/1 102/141/1 
f 57/129/2 92/131/2 102/141/2 104/143/2 
f 102/141/1 105/144/1 97/136/1 96/135/1 
f 79/85/7 106/145/7 107/146/7 108/147/7 
f 107/146/7 109/148/7 110/149/7 108/147/7 
f 56/79/7 111/150/7 112/151/7 79/85/7 
f 112/151/7 113/152/7 106/145/7 79/85/7 
f 55/153/21 114/154/21 115/155/21 56/79/21 
f 115/155/21 116/156/21 111/150/21 56/79/21 
f 55/153/21 117/157/21 118/158/21 119/159/21 
f 118/158/7 120/160/7 121/161/7 119/159/7 
f 108/147/7 110/149/7 119/159/7 121/161/7 
f 119/159/7 122/162/7 114/154/7 55/153/7 
f 91/163/22 90/164/22 2/165/22 1/166/22 
f 95/167/23 94/168/23 5/169/23 3/170/23 
f 99/171/24 98/172/24 7/173/24 6/174/24 
f 105/144/25 102/141/25 8/8/25 4/4/25 
f 109/175/26 107/176/26 30/177/26 29/178/26 
f 113/179/27 112/180/27 33/181/27 31/182/27 
f 116/183/28 115/184/28 35/185/28 34/186/28 
f 122/162/29 119/159/29 36/36/29 32/32/29 
f 65/68/4 64/67/4 73/77/4 
f 61/64/4 68/72/4 62/65/4 
f 66/70/4 72/76/4 67/71/4 
f 70/74/4 74/78/4 71/75/4 
f 78/84/6 77/83/6 87/93/6 
f 75/80/6 82/88/6 76/81/6 
f 80/86/6 86/92/6 81/87/6 
f 84/90/6 88/94/6 85/91/6 
f 92/131/2 91/130/2 102/141/2 
f 89/127/2 95/134/2 90/128/2 
f 93/132/1 99/138/1 94/133/1 
f 97/136/1 105/144/1 98/137/1 
f 110/149/7 109/148/7 119/159/7 
f 106/145/7 113/152/7 107/146/7 
f 111/150/21 116/156/21 112/151/21 
f 114/154/21 122/162/21 115/155/21 
f 73/187/30 64/188/30 20/189/30 19/190/30 
f 62/191/31 68/192/31 18/193/31 21/194/31 
f 67/195/32 72/196/32 15/197/32 22/198/32 
f 71/199/33 74/200/33 17/201/33 16/202/33 
f 87/203/34 77/204/34 48/205/34 47/206/34 
f 76/207/35 82/208/35 46/209/35 49/210/35 
f 81/211/36 86/212/36 43/213/36 50/214/36 
f 85/215/37 88/216/37 45/217/37 44/218/37 
f 102/141/38 91/130/38 1/1/38 8/8/38 
f 90/219/39 95/167/39 3/170/39 2/220/39 
f 94/168/40 99/221/40 6/222/40 5/169/40 
f 98/137/41 105/144/41 4/4/41 7/7/41 
f 119/159/42 109/148/42 29/29/42 36/36/42 
f 107/223/43 113/179/43 31/182/43 30/224/43 
f 112/180/44 116/225/44 34/226/44 33/181/44 
f 115/155/45 122/162/45 32/32/45 35/35/45 
f 123/227/9 39/39/9 38/38/9 118/158/9 
f 118/158/9 38/38/9 124/228/9 120/160/9 
f 58/229/46 55/153/46 57/230/46 59/231/46 
f 125/232/4 11/11/4 10/10/4 101/140/4 
f 101/140/4 10/10/4 126/233/4 103/142/4 
f 25/25/3 59/234/3 127/235/3 128/236/3 
f 26/26/3 25/25/3 128/236/3 
f 129/237/3 28/28/3 27/27/3 130/238/3 
f 131/239/3 129/237/3 130/238/3 
f 52/53/47 132/240/47 133/241/47 134/242/47 
f 53/54/47 52/53/47 134/242/47 
f 58/229/47 25/56/47 54/55/47 135/243/47 
f 136/244/47 58/229/47 135/243/47 
f 55/153/10 58/229/10 136/244/10 137/245/10 
f 117/157/6 55/153/6 137/245/6 
f 132/240/9 108/147/9 121/161/9 138/246/9 
f 133/241/10 132/240/10 138/246/10 
f 96/135/4 129/237/4 131/239/4 139/247/4 
f 100/139/4 96/135/4 139/247/4 
f 59/234/4 57/129/4 104/143/4 140/248/4 
f 127/235/4 59/234/4 140/248/4 
f 26/26/48 141/249/48 142/250/48 12/12/48 
f 143/251/49 144/252/49 145/253/49 146/254/49 
f 53/54/9 147/255/9 148/256/9 40/40/9 
f 149/257/50 150/258/50 151/259/50 152/260/50 
f 117/157/51 153/261/51 154/262/51 118/158/51 
f 155/263/52 156/264/52 157/265/52 158/266/52 
f 100/139/53 159/267/53 160/268/53 101/140/53 
f 161/269/54 162/270/54 163/271/54 164/272/54 
f 9/273/9 142/274/9 164/275/9 10/276/9 
f 26/277/55 128/278/55 141/279/55 
f 140/280/56 162/281/56 161/282/56 127/283/56 
f 103/284/6 126/285/6 163/286/6 
f 14/287/55 13/288/55 145/289/55 
f 125/290/56 160/291/56 146/292/56 11/293/56 
f 100/294/6 139/295/6 159/296/6 
f 130/297/9 144/298/9 143/299/9 131/300/9 
f 37/301/57 148/302/57 158/303/57 38/304/57 
f 53/305/4 134/306/4 147/307/4 
f 138/308/4 156/309/4 155/310/4 133/311/4 
f 120/312/58 124/313/58 157/314/58 
f 42/315/4 41/316/4 151/317/4 
f 123/318/4 154/319/4 152/320/4 39/321/4 
f 117/322/58 137/323/58 153/324/58 
f 135/325/59 150/326/59 149/327/59 136/328/59 
f 121/161/60 120/160/60 157/265/60 156/264/60 
f 138/308/4 121/329/4 156/309/4 
f 124/313/61 38/304/61 158/303/61 157/314/61 
f 149/257/62 152/260/62 154/262/62 153/261/62 
f 123/318/4 118/330/4 154/319/4 
f 137/323/61 136/328/61 149/327/61 153/324/61 
f 143/251/54 146/254/54 160/268/54 159/267/54 
f 125/290/55 101/331/55 160/291/55 
f 139/295/63 131/300/63 143/299/63 159/296/63 
f 104/143/53 103/142/53 163/271/53 162/270/53 
f 140/280/55 104/332/55 162/281/55 
f 126/285/63 10/276/63 164/275/63 163/286/63 
f 54/55/9 42/42/9 151/259/9 150/258/9 
f 41/316/64 39/321/64 152/320/64 151/317/64 
f 135/325/59 54/333/59 150/326/59 
f 27/27/48 14/14/48 145/253/48 144/252/48 
f 13/288/65 11/293/65 146/292/65 145/289/65 
f 130/297/6 27/334/6 144/298/6 
f 161/269/49 164/272/49 142/250/49 141/249/49 
f 9/273/6 12/335/6 142/274/6 
f 128/278/65 127/283/65 161/282/65 141/279/65 
f 155/263/50 158/266/50 148/256/50 147/255/50 
f 37/301/58 40/336/58 148/302/58 
f 134/306/64 133/311/64 155/310/64 147/307/64 
# 131 polygons - 52 triangles

