# 3ds Max Wavefront OBJ Exporter v0.97b - (c)2007 guruware
# File Created: 10.02.2014 18:48:10

mtllib LongFloor01_LP.mtl

#
# object Plane001
#

v  40.0000 40.0000 239.0000
v  88.0000 40.0000 239.0000
v  88.0000 40.0000 -239.0000
v  40.0000 40.0000 -239.0000
v  0.0000 -0.0000 239.0000
v  0.0000 0.0000 -239.0000
v  128.0000 0.0000 -239.0000
v  128.0000 -0.0000 239.0000
v  38.0866 44.6194 256.0000
v  89.9134 44.6194 256.0000
v  89.9136 44.6193 244.0000
v  38.0864 44.6193 244.0000
v  89.9134 44.6194 -256.0000
v  38.0866 44.6194 -256.0000
v  38.0866 44.6194 -244.0000
v  89.9134 44.6194 -244.0000
v  0.0000 7.0711 256.0000
v  0.0000 7.0711 244.0000
v  0.0000 7.0711 -256.0000
v  0.0000 7.0711 -244.0000
v  128.0000 7.0711 -256.0000
v  128.0000 7.0711 -244.0000
v  128.0000 7.0711 256.0000
v  128.0000 7.0711 244.0000
v  128.0000 0.0000 256.0000
v  0.0000 0.0000 256.0000
v  0.0000 0.0000 -256.0000
v  128.0000 0.0000 -256.0000
# 28 vertices

vn -0.0000 1.0000 0.0000
vn -0.7071 0.7071 -0.0000
vn 0.7071 0.7071 0.0000
vn 0.0000 1.0000 -0.0000
vn -0.7021 0.7121 0.0000
vn 0.7021 0.7121 -0.0000
vn 0.7021 0.7121 0.0000
vn 1.0000 0.0000 -0.0000
vn 0.5072 0.5108 -0.6942
vn 0.0000 0.7345 -0.6786
vn -0.5072 0.5108 -0.6942
vn -1.0000 0.0000 -0.0000
vn -1.0000 0.0000 0.0000
vn -0.5072 0.5108 0.6942
vn -0.0000 0.7345 0.6786
vn 0.5072 0.5108 0.6942
vn 1.0000 -0.0000 -0.0000
# 17 vertex normals

vt 0.0425 0.1784 0.0000
vt 0.0425 0.0866 0.0000
vt 0.9575 0.0866 0.0000
vt 0.9575 0.1784 0.0000
vt 0.0425 0.2550 0.0000
vt 0.9575 0.2550 0.0000
vt 0.9575 0.0100 0.0000
vt 0.0425 0.0100 0.0000
vt 0.0100 0.1821 0.0000
vt 0.0100 0.0829 0.0000
vt 0.0330 0.0829 0.0000
vt 0.0330 0.1821 0.0000
vt 0.9900 0.0829 0.0000
vt 0.9900 0.1821 0.0000
vt 0.9670 0.1821 0.0000
vt 0.9670 0.0829 0.0000
vt 0.0100 0.2550 0.0000
vt 0.0330 0.2550 0.0000
vt 0.9900 0.2550 0.0000
vt 0.9670 0.2550 0.0000
vt 0.9900 0.0100 0.0000
vt 0.9670 0.0100 0.0000
vt 0.0100 0.0100 0.0000
vt 0.0330 0.0100 0.0000
vt 0.0425 0.3953 0.0000
vt 0.0100 0.3953 0.0000
vt 0.0196 0.3818 0.0000
vt 0.0425 0.3818 0.0000
vt 0.0100 0.2785 0.0000
vt 0.1182 0.2749 0.0000
vt 0.1223 0.2878 0.0000
vt 0.0200 0.2917 0.0000
vt 0.1183 0.3613 0.0000
vt 0.0100 0.3619 0.0000
vt 0.0195 0.3483 0.0000
vt 0.1219 0.3483 0.0000
vt 0.1748 0.3251 0.0000
vt 0.1422 0.3251 0.0000
vt 0.1422 0.3116 0.0000
vt 0.1652 0.3116 0.0000
vt 0.1744 0.3618 0.0000
vt 0.1418 0.3618 0.0000
vt 0.1514 0.3483 0.0000
vt 0.1744 0.3483 0.0000
vt 0.0100 0.3151 0.0000
vt 0.1182 0.3116 0.0000
vt 0.1223 0.3245 0.0000
vt 0.0200 0.3283 0.0000
vt 0.2505 0.2880 0.0000
vt 0.1422 0.2885 0.0000
vt 0.1517 0.2750 0.0000
vt 0.2541 0.2749 0.0000
vt 0.3066 0.2885 0.0000
vt 0.2741 0.2885 0.0000
vt 0.2741 0.2749 0.0000
vt 0.2970 0.2749 0.0000
# 56 texture coords

g Plane001
usemtl wire_115115115
s 1
f 1/1/1 2/2/1 3/3/1 4/4/1 
s off
f 5/5/2 1/1/2 4/4/2 6/6/2 
f 7/7/3 3/3/3 2/2/3 8/8/3 
s 1
f 9/9/4 10/10/4 11/11/4 12/12/4 
f 13/13/4 14/14/4 15/15/4 16/16/4 
s off
f 17/17/5 9/9/5 12/12/5 18/18/5 
f 14/14/5 19/19/5 20/20/5 15/15/5 
f 21/21/6 13/13/6 16/16/6 22/22/6 
f 10/10/7 23/23/7 24/24/7 11/11/7 
f 25/25/8 8/26/8 24/27/8 23/28/8 
f 8/29/9 2/30/9 11/31/9 24/32/9 
f 2/2/10 1/1/10 12/12/10 11/11/10 
f 1/33/11 5/34/11 18/35/11 12/36/11 
f 5/37/12 26/38/12 17/39/12 18/40/12 
f 27/41/13 6/42/13 20/43/13 19/44/13 
f 6/45/14 4/46/14 15/47/14 20/48/14 
f 4/4/15 3/3/15 16/16/15 15/15/15 
f 3/49/16 7/50/16 22/51/16 16/52/16 
f 7/53/17 28/54/17 21/55/17 22/56/17 
# 19 polygons

